<svg width="10" height="10" viewBox="0 0 10 10" fill="none" xmlns="http://www.w3.org/2000/svg">
<path fill-rule="evenodd" clip-rule="evenodd" d="M5 0C5.16576 0 5.32473 0.0658481 5.44194 0.183058C5.55915 0.300269 5.625 0.45924 5.625 0.625V7.86625L8.3075 5.1825C8.36561 5.12439 8.43459 5.07829 8.51052 5.04685C8.58644 5.0154 8.66782 4.99921 8.75 4.99921C8.83218 4.99921 8.91355 5.0154 8.98948 5.04685C9.0654 5.07829 9.13439 5.12439 9.1925 5.1825C9.25061 5.24061 9.2967 5.3096 9.32815 5.38552C9.3596 5.46144 9.37579 5.54282 9.37579 5.625C9.37579 5.70718 9.3596 5.78856 9.32815 5.86448C9.2967 5.9404 9.25061 6.00939 9.1925 6.0675L5.4425 9.8175C5.38444 9.8757 5.31547 9.92188 5.23954 9.95339C5.16361 9.9849 5.08221 10.0011 5 10.0011C4.91779 10.0011 4.83639 9.9849 4.76045 9.95339C4.68452 9.92188 4.61555 9.8757 4.5575 9.8175L0.807496 6.0675C0.749386 6.00939 0.703291 5.9404 0.671842 5.86448C0.640393 5.78856 0.624207 5.70718 0.624207 5.625C0.624207 5.54282 0.640393 5.46144 0.671842 5.38552C0.703291 5.3096 0.749386 5.24061 0.807496 5.1825C0.924854 5.06514 1.08403 4.99921 1.25 4.99921C1.33218 4.99921 1.41355 5.0154 1.48948 5.04685C1.5654 5.07829 1.63439 5.12439 1.6925 5.1825L4.375 7.86625V0.625C4.375 0.45924 4.44084 0.300269 4.55805 0.183058C4.67526 0.0658481 4.83424 0 5 0Z" fill="#E52727"/>
</svg>
