<svg width="10" height="10" viewBox="0 0 10 10" fill="none" xmlns="http://www.w3.org/2000/svg">
<path fill-rule="evenodd" clip-rule="evenodd" d="M5.00006 9.99999C5.16582 9.99999 5.32479 9.93414 5.442 9.81693C5.55921 9.69972 5.62506 9.54075 5.62506 9.37499V2.13374L8.30756 4.81749C8.36567 4.8756 8.43465 4.92169 8.51058 4.95314C8.5865 4.98459 8.66788 5.00078 8.75006 5.00078C8.83224 5.00078 8.91361 4.98459 8.98954 4.95314C9.06546 4.92169 9.13445 4.8756 9.19256 4.81749C9.25067 4.75938 9.29676 4.69039 9.32821 4.61447C9.35966 4.53854 9.37585 4.45717 9.37585 4.37499C9.37585 4.29281 9.35966 4.21143 9.32821 4.13551C9.29676 4.05958 9.25067 3.9906 9.19256 3.93249L5.44256 0.182488C5.3845 0.124284 5.31553 0.0781052 5.2396 0.0465972C5.16367 0.0150891 5.08227 -0.00112915 5.00006 -0.00112915C4.91785 -0.00112915 4.83645 0.0150891 4.76052 0.0465972C4.68458 0.0781052 4.61561 0.124284 4.55756 0.182488L0.807557 3.93249C0.690199 4.04985 0.624268 4.20902 0.624268 4.37499C0.624268 4.54096 0.690199 4.70013 0.807557 4.81749C0.924916 4.93485 1.08409 5.00078 1.25006 5.00078C1.41603 5.00078 1.5752 4.93485 1.69256 4.81749L4.37506 2.13374V9.37499C4.37506 9.54075 4.44091 9.69972 4.55812 9.81693C4.67533 9.93414 4.8343 9.99999 5.00006 9.99999Z" fill="#4AB1F1"/>
</svg>
