<svg width="100" height="116" viewBox="0 0 100 116" fill="none" xmlns="http://www.w3.org/2000/svg">
<rect y="16" width="100" height="100" rx="15" fill="#89CFFB"/>
<path d="M100 44.1782C100 44.507 99.9962 44.8353 99.9884 45.1631C99.9851 45.3773 99.9784 45.5916 99.9701 45.8058C99.9685 45.8673 99.9668 45.9271 99.9635 45.9885C99.9585 46.1064 99.9535 46.2227 99.9485 46.3373C99.912 47.1029 99.8555 47.863 99.7791 48.6176C99.7758 48.6542 99.7725 48.6907 99.7692 48.7256C99.7609 48.8003 99.7542 48.875 99.7443 48.9498C99.721 49.174 99.6961 49.3982 99.6679 49.6191C99.6496 49.7686 99.6313 49.9164 99.6114 50.0659C99.6014 50.1373 99.5915 50.2087 99.5832 50.2785C99.5715 50.3565 99.5616 50.4329 99.5499 50.5093C99.545 50.5425 99.54 50.5757 99.535 50.6106C99.5184 50.7236 99.5018 50.8382 99.4835 50.9511C99.4619 51.0989 99.4387 51.2451 99.4138 51.3929C99.3905 51.539 99.3656 51.6852 99.339 51.8313C99.3141 51.9775 99.2875 52.1236 99.261 52.2698C99.2344 52.4176 99.2062 52.5638 99.1779 52.7099C99.0351 53.434 98.8756 54.1521 98.6996 54.864C98.6298 55.1414 98.5584 55.4182 98.4854 55.6944C98.3641 56.1428 98.2362 56.5891 98.1017 57.0331C98.0635 57.156 98.0253 57.2789 97.9871 57.4001C97.9439 57.5396 97.8991 57.6791 97.8542 57.817C97.8094 57.9565 97.7645 58.0943 97.718 58.2322C97.6715 58.37 97.625 58.5079 97.5769 58.6457C97.5304 58.7819 97.4822 58.9198 97.4324 59.056C97.3842 59.1938 97.3344 59.33 97.2846 59.4662C97.2331 59.6024 97.1833 59.7386 97.1318 59.8731C97.0288 60.1455 96.9231 60.4151 96.8146 60.6819C96.7614 60.8164 96.7066 60.951 96.6501 61.0838C96.4292 61.6186 96.1978 62.1473 95.9559 62.6699C95.9028 62.7862 95.8496 62.9025 95.7948 63.017C95.7583 63.0934 95.7234 63.1682 95.6868 63.2446C95.6254 63.3708 95.5656 63.4954 95.5042 63.6199C95.4427 63.7461 95.3796 63.874 95.3148 64.0019C95.1869 64.2544 95.0568 64.5063 94.9245 64.7576C94.7933 65.0084 94.6588 65.2592 94.521 65.5066C94.3831 65.7541 94.2436 66.0016 94.1024 66.2457C94.031 66.3686 93.9596 66.4915 93.8882 66.6128C93.6008 67.0994 93.3041 67.5805 92.998 68.056C92.694 68.5294 92.3801 68.9972 92.0563 69.4594C91.8952 69.6903 91.7307 69.9211 91.5647 70.1487C91.4982 70.24 91.4318 70.3297 91.3654 70.4194C91.284 70.5323 91.1993 70.6436 91.1146 70.7549C87.5152 75.5424 82.9792 79.5474 77.7827 82.5261C72.5862 85.5048 66.8379 87.3949 60.8876 88.0813C54.9374 88.7677 48.9098 88.2362 43.1715 86.5189C37.4333 84.8017 32.1045 81.9347 27.5096 78.0924C27.0246 77.6872 26.5485 77.272 26.0812 76.8468C23.0829 74.1165 20.4728 70.9883 18.3235 67.5495C18.0561 67.1193 17.7937 66.6842 17.5412 66.2457C13.6658 59.5378 11.6313 51.9251 11.6436 44.1782C11.6436 19.7789 31.4225 -2.24084e-05 55.8218 -2.24084e-05C63.1636 -0.00447211 70.3905 1.8224 76.8483 5.31516C83.306 8.80792 88.7905 13.8563 92.8053 20.0031C92.8784 20.1144 92.9515 20.2273 93.0245 20.3402C97.0163 26.5525 99.3771 33.6711 99.8888 41.0376C99.9635 42.0739 100.001 43.1208 100 44.1782Z" fill="#F2F2F2"/>
<path d="M93.0245 20.3402H31.831C31.787 20.3392 31.7452 20.3209 31.7145 20.2894C31.6837 20.2579 31.6665 20.2157 31.6665 20.1717C31.6665 20.1276 31.6837 20.0854 31.7145 20.0539C31.7452 20.0224 31.787 20.0042 31.831 20.0031H92.8053C92.8783 20.1144 92.9514 20.2273 93.0245 20.3402Z" fill="#CACACA"/>
<path d="M35.5436 17.9801C36.5458 17.9801 37.3582 17.1496 37.3582 16.1251C37.3582 15.1006 36.5458 14.2701 35.5436 14.2701C34.5415 14.2701 33.7291 15.1006 33.7291 16.1251C33.7291 17.1496 34.5415 17.9801 35.5436 17.9801Z" fill="#3F3D56"/>
<path d="M41.812 17.9801C42.8141 17.9801 43.6265 17.1496 43.6265 16.1251C43.6265 15.1006 42.8141 14.2701 41.812 14.2701C40.8098 14.2701 39.9974 15.1006 39.9974 16.1251C39.9974 17.1496 40.8098 17.9801 41.812 17.9801Z" fill="#3F3D56"/>
<path d="M48.0803 17.9801C49.0824 17.9801 49.8948 17.1496 49.8948 16.1251C49.8948 15.1006 49.0824 14.2701 48.0803 14.2701C47.0781 14.2701 46.2657 15.1006 46.2657 16.1251C46.2657 17.1496 47.0781 17.9801 48.0803 17.9801Z" fill="#3F3D56"/>
<path d="M99.8887 41.0376C98.2927 41.7634 96.8627 42.9359 95.6138 44.5486C94.1705 46.4137 92.6242 47.7274 91.0448 48.6176C90.9701 48.6591 90.897 48.699 90.8222 48.7389C89.4063 49.5019 87.8536 49.9777 86.2533 50.139C85.7699 50.1877 85.2842 50.211 84.7984 50.2087C84.5958 50.207 84.3932 50.2021 84.1922 50.1921C83.7155 50.1688 83.2439 50.1223 82.7805 50.0559C80.1198 49.6772 77.7133 48.6542 75.9312 47.6926C73.4895 46.3459 70.8391 45.4184 68.0904 44.9488C67.5988 44.8675 67.1083 44.8038 66.6189 44.7579C66.4163 44.7379 66.2153 44.723 66.0143 44.7097C65.5211 44.6765 65.0284 44.661 64.5362 44.6632C64.2838 44.6648 64.033 44.6698 63.7805 44.6798C59.5387 44.8459 54.0065 46.055 49.0456 50.2785C48.9792 50.3349 48.9144 50.3914 48.848 50.4479C48.7865 50.501 48.7251 50.5558 48.6636 50.6106C47.8784 51.3086 47.1384 52.0558 46.448 52.8478C45.6566 53.7548 44.9243 54.7117 44.2557 55.7127C43.4618 56.8846 42.5343 57.9603 41.4921 58.9181C39.9506 60.3407 38.7161 62.0634 37.8644 63.9803C37.0127 65.8973 36.5619 67.9681 36.5395 70.0657V70.1487C36.5378 70.2384 36.5378 70.3297 36.5378 70.4194H91.367C91.4334 70.3297 91.4999 70.2401 91.5646 70.1487C91.7307 69.9212 91.8951 69.6903 92.0562 69.4595C92.3801 68.9977 92.694 68.5299 92.9979 68.056C93.3052 67.5811 93.6019 67.1 93.8881 66.6128C93.9596 66.4915 94.031 66.3686 94.1024 66.2457C94.2436 66.0016 94.3831 65.7541 94.5209 65.5067C94.6588 65.2592 94.7933 65.0084 94.9245 64.7576C95.0574 64.5068 95.1875 64.255 95.3148 64.0019C95.3796 63.8741 95.4427 63.7462 95.5041 63.62C95.5656 63.4954 95.6254 63.3708 95.6868 63.2446C95.7234 63.1682 95.7582 63.0935 95.7948 63.0171C95.8496 62.9025 95.9027 62.7862 95.9559 62.67C96.1984 62.1468 96.4298 61.6181 96.6501 61.0839C96.7066 60.951 96.7614 60.8165 96.8145 60.6819C96.9225 60.4145 97.0282 60.1449 97.1318 59.8731C97.1832 59.7386 97.2331 59.6024 97.2846 59.4662C97.3344 59.33 97.3842 59.1938 97.4324 59.056C97.4822 58.9198 97.5304 58.7819 97.5769 58.6458C97.625 58.5079 97.6715 58.3701 97.718 58.2322C97.7645 58.0944 97.8094 57.9565 97.8542 57.817C97.8991 57.6792 97.9439 57.5396 97.9871 57.4001C98.0253 57.2789 98.0635 57.156 98.1017 57.0331C98.2362 56.5896 98.3641 56.1434 98.4853 55.6945C98.5584 55.4188 98.6298 55.1419 98.6996 54.864C98.8756 54.1532 99.0351 53.4352 99.1779 52.7099C99.2061 52.5638 99.2344 52.4176 99.2609 52.2698C99.2875 52.1237 99.3141 51.9775 99.339 51.8313C99.3656 51.6852 99.3905 51.5391 99.4137 51.3929C99.4387 51.2451 99.4619 51.0989 99.4835 50.9511C99.5018 50.8382 99.5184 50.7236 99.535 50.6106C99.54 50.5758 99.5449 50.5426 99.5499 50.5093C99.5616 50.4313 99.5715 50.3549 99.5815 50.2785C99.5914 50.2071 99.6014 50.1356 99.6114 50.0659C99.6313 49.9164 99.6496 49.7686 99.6679 49.6191C99.6961 49.3982 99.721 49.174 99.7443 48.9498H99.7459C99.7526 48.8751 99.7609 48.8003 99.7692 48.7256C99.7725 48.6907 99.7758 48.6542 99.7791 48.6176C99.8555 47.8636 99.912 47.1035 99.9485 46.3373C99.9535 46.2227 99.9585 46.1065 99.9635 45.9885C99.9668 45.9271 99.9685 45.8673 99.9701 45.8058C99.9784 45.5916 99.9851 45.3774 99.9884 45.1631C99.9967 44.8359 100.001 44.5076 100 44.1782C100 43.1219 99.9629 42.075 99.8887 41.0376Z" fill="#FEDC62"/>
<path d="M48.4786 52.176H47.8727V69.9368H48.4786V52.176Z" fill="#3F3D56"/>
<path d="M66.6196 43.8811H66.0137V69.9368H66.6196V43.8811Z" fill="#3F3D56"/>
<path d="M84.7981 49.3346H84.1921V69.9368H84.7981V49.3346Z" fill="#3F3D56"/>
<path d="M66.3541 46.1524C67.3778 46.1524 68.2077 45.3225 68.2077 44.2987C68.2077 43.275 67.3778 42.445 66.3541 42.445C65.3303 42.445 64.5004 43.275 64.5004 44.2987C64.5004 45.3225 65.3303 46.1524 66.3541 46.1524Z" fill="#3F3D56"/>
<path d="M84.5325 51.303C85.5563 51.303 86.3862 50.473 86.3862 49.4493C86.3862 48.4255 85.5563 47.5956 84.5325 47.5956C83.5088 47.5956 82.6788 48.4255 82.6788 49.4493C82.6788 50.473 83.5088 51.303 84.5325 51.303Z" fill="#3F3D56"/>
<path d="M47.8434 52.535C48.8672 52.535 49.6971 51.7051 49.6971 50.6813C49.6971 49.6575 48.8672 48.8276 47.8434 48.8276C46.8197 48.8276 45.9897 49.6575 45.9897 50.6813C45.9897 51.7051 46.8197 52.535 47.8434 52.535Z" fill="#3F3D56"/>
<path d="M91.5646 70.1487C91.4982 70.24 91.4317 70.3297 91.3653 70.4194C91.2839 70.5323 91.1992 70.6436 91.1145 70.7549H36.478V70.1487H91.5646Z" fill="#3F3D56"/>
<path d="M21.1117 113.788H22.8673L23.7026 107.016L21.1113 107.016L21.1117 113.788Z" fill="#FFB8B8"/>
<path d="M25.6793 113.86C25.4755 113.654 25.2327 113.491 24.9651 113.38C24.6974 113.271 24.4108 113.214 24.1214 113.214L23.0867 112.43L23.0319 112.452L21.1585 113.214H20.6636V115.489H26.3254V115.418C26.3262 115.129 26.2695 114.842 26.1586 114.574C26.0477 114.307 25.8848 114.064 25.6793 113.86Z" fill="#2F2E41"/>
<path d="M29.2685 113.788H31.0242L31.8594 107.016L29.2682 107.016L29.2685 113.788Z" fill="#FFB8B8"/>
<path d="M33.8373 113.86C33.6332 113.654 33.3898 113.491 33.1215 113.38C32.8538 113.27 32.5672 113.214 32.2778 113.214L31.2448 112.43L31.1883 112.453L29.3149 113.214H28.8199L28.8216 115.489H34.4817V115.418C34.4825 115.129 34.426 114.842 34.3154 114.575C34.2048 114.307 34.0423 114.064 33.8373 113.86Z" fill="#2F2E41"/>
<path d="M30.672 76.7275L16.8773 77.0873L17.1172 83.8047C17.1172 83.8047 16.8773 85.6041 17.3571 86.0839C17.8369 86.5637 18.0769 86.5637 17.8369 87.4034C17.597 88.243 18.8646 89.6145 18.7106 89.7684C18.5567 89.9224 18.1968 90.7621 18.1968 90.7621L19.3963 97.5994C19.3963 97.5994 20.236 109.475 20.4759 109.715C20.7158 109.955 20.9557 109.715 20.7158 110.314C20.4759 110.914 20.236 110.674 20.4759 110.914C20.6884 111.143 20.8886 111.384 21.0757 111.634H23.9758C23.9758 111.634 24.1945 110.434 24.1945 110.314C24.1945 110.195 24.4344 109.475 24.4344 109.355C24.4344 109.235 24.2224 109.023 24.2224 109.023C24.1491 108.779 24.0996 108.529 24.0745 108.275C24.0745 108.035 23.3548 98.7989 23.3548 98.7989L24.7943 86.8036L28.2729 98.559C28.2729 98.559 28.2729 108.875 28.5128 109.115C28.7527 109.355 28.7527 109.235 28.6328 109.715C28.5128 110.195 28.033 110.075 28.3929 110.434C28.7527 110.794 28.8727 110.195 28.7527 110.794L28.6328 111.394L32.2314 111.446C32.2314 111.446 32.7112 110.434 32.4713 110.075C32.2314 109.715 32.2458 109.813 32.5385 109.224C32.8312 108.635 32.9511 108.515 32.8312 108.395C32.7112 108.275 32.7112 107.637 32.7112 107.637L32.1114 96.16C32.1114 96.16 31.9915 84.0447 31.9915 83.6848C31.9824 83.4996 32.0166 83.3149 32.0911 83.1451V82.6567L31.6316 80.9259L30.672 76.7275Z" fill="#2F2E41"/>
<path d="M46.2833 50.5653C46.217 50.7496 46.1111 50.9171 45.9731 51.056C45.8351 51.1949 45.6683 51.3019 45.4845 51.3693C45.3006 51.4368 45.1042 51.4632 44.9091 51.4465C44.714 51.4299 44.5249 51.3707 44.3551 51.2731L38.3672 56.2896L38.0417 53.8375L43.8985 49.3541C44.0814 49.0798 44.3586 48.8821 44.6775 48.7985C44.9964 48.7149 45.3349 48.7512 45.6289 48.9005C45.9228 49.0498 46.1518 49.3017 46.2724 49.6085C46.393 49.9154 46.3969 50.2558 46.2833 50.5653H46.2833Z" fill="#FFB8B8"/>
<path d="M19.8796 52.6357C21.9333 52.6357 23.5981 50.9709 23.5981 48.9172C23.5981 46.8635 21.9333 45.1986 19.8796 45.1986C17.8259 45.1986 16.161 46.8635 16.161 48.9172C16.161 50.9709 17.8259 52.6357 19.8796 52.6357Z" fill="#FFB8B8"/>
<path d="M22.8943 45.2164C22.5481 44.3913 21.0645 43.9014 18.7168 43.9751C16.3691 44.0489 15.958 46.8486 15.958 46.8486C14.6649 48.0538 16.7526 51.8168 17.1148 51.298C17.477 50.7792 18.0851 51.2696 18.0851 51.2696L17.5056 48.0099C18.1176 48.2453 18.7757 48.4034 19.3514 48.1291L18.3976 47.6191L20.769 47.9142L19.791 47.1619C19.8148 47.154 19.8385 47.1459 19.8622 47.1379C20.2544 47.307 20.6744 47.4024 21.1011 47.4192C21.5997 47.4155 22.1296 47.1819 22.3385 46.7291C22.3941 46.6048 22.4242 46.4706 22.427 46.3345C23.1145 46.5577 23.4754 47.363 23.4754 47.363C23.3449 46.6319 23.1505 45.9136 22.8943 45.2164Z" fill="#2F2E41"/>
<path d="M22.8562 52.802C22.0257 52.802 21.491 52.9166 20.1988 53.1342C17.8139 53.5361 19.2422 55.8023 19.2422 55.8023C19.2422 55.8023 19.3501 55.7474 19.0578 55.8023C18.7655 55.8571 17.769 56.719 17.769 56.719L15.9869 58.3018C13.3014 60.4094 13.9026 63.6979 13.9026 63.6979L17.8188 67.639L16.1032 75.5463C16.1032 75.5463 16.8323 76.7205 16.4553 77.247C16.0783 77.7734 19.777 77.6223 19.777 77.6223C22.3297 78.76 31.3231 77.7984 31.3231 77.7984C31.1985 77.4728 29.9944 74.95 29.9944 74.95C30.5176 74.0465 30.0193 72.7411 30.0193 72.7411C30.0193 72.7411 29.4995 66.5661 29.1673 65.7125C28.8352 64.8588 30.0177 60.2334 30.7949 60.2832C31.5722 60.333 36.5929 57.772 36.5929 57.772C36.5929 57.772 36.4667 57.571 38.1242 56.8934C39.0763 56.5193 39.9491 55.9688 40.6968 55.2708L41.3778 53.9106C41.0506 54.0368 39.9461 51.9541 39.9461 51.9541L39.4645 52.1377L39.1855 52.0571C39.1855 52.0571 37.0081 52.6766 36.563 53.1283C36.1179 53.5801 35.9684 53.4538 35.5665 53.5551C35.1646 53.6565 35.1148 53.9388 34.9885 53.9072C34.8623 53.8757 34.6381 54.2577 34.4621 54.2079C34.286 54.158 33.909 54.359 33.6582 54.4088C33.4074 54.4586 31.6253 55.2127 31.6253 55.2127C30.5226 54.6546 27.5331 54.8805 27.5331 54.8805C27.5331 54.8805 26.5548 54.3042 26.2775 54.8805C26.2028 55.0442 26.083 55.1833 25.9321 55.2812C25.7812 55.3792 25.6054 55.432 25.4255 55.4335L24.233 54.9237C24.1637 55.1766 22.863 52.5398 22.8562 52.802Z" fill="#3F3D56"/>
<path d="M9.52177 106.458L9.35607 102.732C7.62862 101.809 5.70188 101.321 3.74316 101.311C6.43894 103.515 6.10205 107.764 7.92973 110.727C8.50685 111.648 9.28361 112.426 10.2024 113.005C11.1213 113.584 12.1586 113.949 13.2376 114.072L15.4936 115.454C15.8031 113.728 15.7349 111.956 15.2935 110.259C14.8522 108.562 14.0482 106.981 12.9371 105.625C12.3062 104.87 11.5827 104.198 10.7839 103.624C10.2436 105.049 9.52177 106.458 9.52177 106.458Z" fill="#F2F2F2"/>
<path d="M49.0767 50.2784H48.0802V50.6105H49.0767V50.2784Z" fill="#3F3D56"/>
<path d="M51.0884 50.2785V50.6106H53.1013V50.2785H51.0884ZM55.1142 50.2785V50.6106H57.1255V50.2785H55.1142ZM59.1384 50.2785V50.6106H61.1514V50.2785H59.1384ZM63.1627 50.2785V50.6106H65.1756V50.2785H63.1627ZM67.1885 50.2785V50.6106H69.1998V50.2785H67.1885ZM71.2127 50.2785V50.6106H73.2256V50.2785H71.2127ZM75.2369 50.2785V50.6106H77.2499V50.2785H75.2369ZM79.2628 50.2785V50.6106H81.2741V50.2785H79.2628ZM83.287 50.2785V50.6106H85.2999V50.2785H83.287ZM87.3112 50.2785V50.6106H89.3241V50.2785H87.3112ZM91.3354 50.2785V50.6106H93.3483V50.2785H91.3354ZM95.3613 50.2785V50.6106H97.3725V50.2785H95.3613ZM99.3855 50.2785V50.6106H99.5349C99.5399 50.5758 99.5449 50.5425 99.5499 50.5093C99.5615 50.4329 99.5715 50.3565 99.5831 50.2785H99.3855Z" fill="#3F3D56"/>
<path d="M66.3494 43.635H65.3529V43.9672H66.3494V43.635Z" fill="#3F3D56"/>
<path d="M68.3611 43.6351V43.9673H70.374V43.6351H68.3611ZM72.3869 43.6351V43.9673H74.3982V43.6351H72.3869ZM76.4111 43.6351V43.9673H78.4241V43.6351H76.4111ZM80.4354 43.6351V43.9673H82.4483V43.6351H80.4354ZM84.4612 43.6351V43.9673H86.4725V43.6351H84.4612ZM88.4854 43.6351V43.9673H90.4984V43.6351H88.4854ZM92.5096 43.6351V43.9673H94.5226V43.6351H92.5096ZM96.5355 43.6351V43.9673H98.5468V43.6351H96.5355Z" fill="#3F3D56"/>
<path d="M84.7847 48.6176H83.7882V48.9497H84.7847V48.6176Z" fill="#3F3D56"/>
<path d="M86.7964 48.6176V48.9498H88.8093V48.6176H86.7964ZM90.8222 48.6176V48.9498H92.8335V48.6176H90.8222ZM94.8465 48.6176V48.9498H96.8594V48.6176H94.8465ZM98.8707 48.6176V48.9498H99.7459C99.7526 48.875 99.7609 48.8003 99.7692 48.7256C99.7725 48.6907 99.7758 48.6542 99.7791 48.6176H98.8707Z" fill="#3F3D56"/>
<path d="M25.4285 83.2591V72.5618C25.4287 72.3453 25.5148 72.1377 25.6679 71.9846C25.821 71.8315 26.0286 71.7454 26.2451 71.7451H34.324C34.5405 71.7454 34.7481 71.8315 34.9012 71.9846C35.0543 72.1377 35.1404 72.3453 35.1406 72.5618V83.2591C35.1404 83.4757 35.0543 83.6832 34.9012 83.8363C34.7481 83.9894 34.5405 84.0756 34.324 84.0758H26.2451C26.0286 84.0756 25.821 83.9894 25.6679 83.8363C25.5148 83.6832 25.4287 83.4757 25.4285 83.2591Z" fill="#E6E6E6"/>
<path d="M26.0482 80.0281V73.1509C26.0484 72.9481 26.1291 72.7537 26.2725 72.6103C26.4159 72.4669 26.6103 72.3863 26.813 72.386H33.7561C33.9589 72.3863 34.1533 72.4669 34.2967 72.6103C34.4401 72.7537 34.5208 72.9481 34.521 73.1509V82.67C34.5208 82.8728 34.4401 83.0672 34.2967 83.2106C34.1533 83.354 33.9589 83.4346 33.7561 83.4349H29.455C28.5518 83.4338 27.6859 83.0746 27.0472 82.4359C26.4085 81.7973 26.0492 80.9313 26.0482 80.0281Z" fill="white"/>
<path d="M27.1724 75.0698C27.1726 74.8716 27.2514 74.6816 27.3915 74.5415C27.5316 74.4014 27.7216 74.3226 27.9197 74.3224H32.7362C32.9344 74.3224 33.1245 74.4011 33.2646 74.5413C33.4048 74.6814 33.4835 74.8715 33.4835 75.0698C33.4835 75.268 33.4048 75.4581 33.2646 75.5982C33.1245 75.7384 32.9344 75.8171 32.7362 75.8171H27.9197C27.7216 75.8169 27.5316 75.7381 27.3915 75.598C27.2514 75.4579 27.1726 75.2679 27.1724 75.0698Z" fill="#E6E6E6"/>
<path d="M27.1724 77.395C27.1726 77.1968 27.2514 77.0068 27.3915 76.8667C27.5316 76.7266 27.7216 76.6478 27.9197 76.6476H32.7362C32.9344 76.6476 33.1245 76.7263 33.2646 76.8665C33.4048 77.0066 33.4835 77.1967 33.4835 77.395C33.4835 77.5932 33.4048 77.7833 33.2646 77.9234C33.1245 78.0636 32.9344 78.1423 32.7362 78.1423H27.9197C27.7216 78.1421 27.5316 78.0633 27.3915 77.9232C27.2514 77.7831 27.1726 77.5931 27.1724 77.395Z" fill="#E6E6E6"/>
<path d="M27.1724 79.7201C27.1726 79.5219 27.2514 79.332 27.3915 79.1918C27.5316 79.0517 27.7216 78.9729 27.9197 78.9727H32.7362C32.9344 78.9727 33.1245 79.0515 33.2646 79.1916C33.4048 79.3318 33.4835 79.5219 33.4835 79.7201C33.4835 79.9183 33.4048 80.1084 33.2646 80.2486C33.1245 80.3887 32.9344 80.4675 32.7362 80.4675H27.9197C27.7216 80.4673 27.5316 80.3884 27.3915 80.2483C27.2514 80.1082 27.1726 79.9182 27.1724 79.7201Z" fill="#E6E6E6"/>
<path d="M25.6193 79.5223C25.4377 79.5256 25.2575 79.4891 25.0914 79.4153C24.9254 79.3415 24.7776 79.2322 24.6584 79.0951C24.5392 78.958 24.4515 78.7964 24.4015 78.6217C24.3515 78.447 24.3404 78.2635 24.369 78.0841L17.4716 74.3075L19.4903 73.2157L25.8821 77.0546C26.1803 77.1226 26.4433 77.2976 26.6211 77.5465C26.7989 77.7955 26.8792 78.1009 26.8468 78.4051C26.8144 78.7093 26.6715 78.991 26.4453 79.1969C26.2191 79.4028 25.9252 79.5186 25.6193 79.5223Z" fill="#FFB8B8"/>
<path d="M21.6086 76.7306L19.1627 76.2961L18.2869 75.568L17.6979 75.268L15.6679 73.8432L15.6618 73.8252L12.4363 64.2904C12.2882 63.5074 12.445 62.6974 12.8746 62.0263C13.3042 61.3551 13.9742 60.8736 14.7472 60.6803C15.1747 60.5739 15.6199 60.5593 16.0535 60.6374C16.487 60.7155 16.8991 60.8845 17.2626 61.1334C17.6261 61.3822 17.9328 61.7052 18.1625 62.0812C18.3921 62.4571 18.5396 62.8774 18.5951 63.3144L19.6332 71.4861L21.3539 73.2632L22.1068 73.4089L22.2801 74.2196L22.9372 75.2359L21.6086 76.7306Z" fill="#3F3D56"/>
</svg>
