<svg width="102" height="111" viewBox="0 0 102 111" fill="none" xmlns="http://www.w3.org/2000/svg">
<rect x="2" y="10" width="100" height="100" rx="15" fill="#89CFFB"/>
<path d="M34.7309 88.8118C32.7411 86.7597 29.8576 85.5828 26.8198 85.5828L26.7026 85.5831C24.7017 85.5839 22.7364 85.0532 21.0079 84.0452L20.828 83.9404L20.9729 83.7911C21.7572 82.9797 22.4121 82.0525 22.9146 81.042C22.5577 81.3748 22.132 81.625 21.6677 81.775C21.2034 81.9251 20.7117 81.9712 20.2276 81.9101C19.7164 81.8492 19.2257 81.6733 18.7923 81.3956C18.3588 81.118 17.9939 80.7458 17.7248 80.307C16.663 78.5843 15.3974 76.1399 15.3974 74.2777C15.3991 72.7038 15.7286 71.1474 16.3651 69.7078C17.0016 68.2682 17.931 66.9771 19.0941 65.9166C19.8305 65.2526 20.4186 64.4409 20.8202 63.5344C21.2218 62.6279 21.4279 61.6469 21.425 60.6554L21.4244 60.5143C21.4242 59.209 21.5837 57.9085 21.8994 56.6419L21.9314 56.514L22.063 56.5186C22.9116 56.5475 23.7607 56.4763 24.5927 56.3067C23.8123 56.2109 23.0489 56.0079 22.324 55.7033L22.1824 55.646L22.2305 55.5009C25.5424 53.4503 33.0184 54.5122 37.3576 44.5843C40.8762 36.534 53.2908 51.7304 53.2908 60.5143C53.2908 61.4106 52.4038 62.5951 53.0678 63.1875C60.2459 69.5914 55.2931 73.7036 53.7316 77.8415C53.3611 78.8232 54.1644 79.901 54.1644 80.9632C54.1644 81.1434 54.1598 81.3294 54.1508 81.5161L54.1369 81.8031L53.8976 81.6438C53.4241 81.3337 52.9852 80.9737 52.5884 80.57C53.0001 81.5173 53.1941 82.5449 53.1562 83.5771C53.1183 84.6093 52.8494 85.6198 52.3693 86.5344C51.6171 87.9542 50.8893 88.9706 50.2063 89.5553C48.0182 91.4277 45.1975 92.3936 42.321 92.2554C39.4444 92.1172 36.7293 90.8854 34.7309 88.8118H34.7309Z" fill="#E6E6E6"/>
<path d="M46.7486 110.172C46.7976 110.172 46.8448 110.154 46.8817 110.122C46.9187 110.09 46.9428 110.046 46.9497 109.997C46.9583 109.937 47.8044 103.835 47.0445 95.7249C46.3428 88.2353 44.0892 77.4477 37.3384 68.588C37.3222 68.5668 37.302 68.5489 37.2789 68.5354C37.2558 68.522 37.2303 68.5132 37.2039 68.5096C37.1774 68.506 37.1505 68.5077 37.1246 68.5145C37.0988 68.5213 37.0745 68.5332 37.0533 68.5494C37.032 68.5656 37.0142 68.5858 37.0008 68.6089C36.9873 68.632 36.9786 68.6575 36.975 68.684C36.9715 68.7105 36.9731 68.7374 36.98 68.7632C36.9869 68.789 36.9987 68.8133 37.0149 68.8345C43.7075 77.6177 45.9429 88.3261 46.6397 95.7628C47.3951 103.825 46.5557 109.88 46.5471 109.94C46.543 109.969 46.5452 109.998 46.5534 110.026C46.5617 110.054 46.5759 110.08 46.595 110.102C46.6141 110.124 46.6377 110.142 46.6642 110.154C46.6907 110.166 46.7195 110.172 46.7486 110.172V110.172Z" fill="#3F3D56"/>
<path d="M41.2396 81.085C41.2825 81.0851 41.3244 81.0715 41.3591 81.0463C41.3939 81.0211 41.4198 80.9855 41.4331 80.9446C41.4464 80.9038 41.4464 80.8598 41.4331 80.8189C41.4199 80.7781 41.394 80.7425 41.3593 80.7173C39.4357 79.4152 37.3577 78.3574 35.173 77.5681C31.76 76.3186 26.5699 75.1858 21.2269 76.8863C21.2014 76.8944 21.1777 76.9074 21.1572 76.9246C21.1368 76.9418 21.1199 76.9628 21.1076 76.9866C21.0953 77.0103 21.0878 77.0362 21.0855 77.0629C21.0832 77.0895 21.0862 77.1163 21.0943 77.1418C21.1025 77.1673 21.1155 77.1909 21.1328 77.2113C21.15 77.2318 21.1711 77.2486 21.1949 77.2609C21.2187 77.2731 21.2446 77.2806 21.2712 77.2828C21.2979 77.285 21.3247 77.2819 21.3502 77.2737C26.5838 75.6082 31.6797 76.7222 35.0332 77.95C37.1827 78.7257 39.2274 79.7658 41.1202 81.0462C41.1549 81.0715 41.1967 81.0851 41.2396 81.085Z" fill="#3F3D56"/>
<path d="M50.5448 57.909C50.548 57.8661 50.5375 57.8234 50.5148 57.7869C50.4921 57.7504 50.4585 57.7221 50.4188 57.7059C50.379 57.6897 50.3351 57.6865 50.2934 57.6968C50.2517 57.7071 50.2143 57.7303 50.1866 57.7631C48.7494 59.5879 47.5447 61.5844 46.6002 63.7065C45.1081 67.0207 43.6045 72.1157 44.9158 77.5673C44.922 77.5933 44.9333 77.6178 44.949 77.6395C44.9647 77.6611 44.9845 77.6794 45.0073 77.6934C45.03 77.7073 45.0553 77.7167 45.0817 77.7209C45.1081 77.725 45.1351 77.724 45.1611 77.7177C45.187 77.7115 45.2115 77.7002 45.2331 77.6844C45.2547 77.6687 45.273 77.6489 45.287 77.6261C45.3009 77.6033 45.3102 77.578 45.3144 77.5516C45.3185 77.5252 45.3174 77.4982 45.3111 77.4723C44.0268 72.1323 45.5049 67.1298 46.971 63.8734C47.8995 61.7854 49.0841 59.8209 50.4975 58.0252C50.5252 57.9925 50.5418 57.9518 50.5448 57.909Z" fill="#3F3D56"/>
<path d="M89.7609 109.957H73.5758L73.5062 109.83C73.2993 109.455 73.0995 109.057 72.9128 108.649C71.2456 105.08 70.541 100.998 69.9192 97.3959L69.451 94.6812C69.3943 94.3524 69.437 94.0142 69.5737 93.7098C69.7103 93.4055 69.9347 93.1488 70.218 92.9727C70.5014 92.7966 70.8309 92.709 71.1643 92.7213C71.4977 92.7335 71.8199 92.845 72.0896 93.0414C74.5493 94.8312 77.0099 96.6193 79.4715 98.4056C80.4036 99.0838 81.4681 99.8687 82.4875 100.717C82.5859 100.239 82.6887 99.7601 82.7916 99.2877C82.8626 98.9615 83.0292 98.6638 83.2703 98.4329C83.5114 98.202 83.8159 98.0482 84.1448 97.9913C84.4738 97.9345 84.8122 97.977 85.1169 98.1136C85.4215 98.2502 85.6784 98.4746 85.8548 98.7581L87.7484 101.8C89.1296 104.022 90.3486 106.212 90.1002 108.573C90.1014 108.602 90.0993 108.631 90.0938 108.659C90.0441 109.047 89.952 109.428 89.819 109.796L89.7609 109.957Z" fill="#F0F0F0"/>
<path d="M82.2204 46.3267L79.0968 34.7653C78.963 34.2759 78.6422 33.8587 78.2035 33.6037C77.7648 33.3488 77.2435 33.2765 76.752 33.4026C76.4977 33.4678 76.2594 33.5841 76.0516 33.7444C75.8437 33.9047 75.6707 34.1057 75.5431 34.335C75.4154 34.5644 75.3358 34.8173 75.3092 35.0784C75.2825 35.3396 75.3092 35.6034 75.3878 35.8538L79.0007 47.7638L80.8909 55.0933C80.6156 55.3035 80.4117 55.5934 80.3069 55.9235C80.202 56.2537 80.2014 56.6081 80.305 56.9386C80.4086 57.2691 80.6114 57.5597 80.886 57.7709C81.1605 57.9822 81.4934 58.1037 81.8394 58.1192C82.1854 58.1346 82.5278 58.0432 82.8201 57.8572C83.1123 57.6713 83.3402 57.3999 83.4729 57.0799C83.6055 56.76 83.6364 56.4069 83.5614 56.0688C83.4864 55.7306 83.3091 55.4237 83.0537 55.1898L82.2204 46.3267Z" fill="#A0616A"/>
<path d="M55.9359 43.8367L65.4266 36.5327C65.8278 36.222 66.0907 35.7661 66.1587 35.2633C66.2267 34.7605 66.0943 34.2511 65.79 33.8451C65.6326 33.635 65.4341 33.4592 65.2065 33.3284C64.979 33.1976 64.7272 33.1145 64.4664 33.0842C64.2057 33.0538 63.9416 33.0769 63.6901 33.152C63.4385 33.2271 63.205 33.3527 63.0036 33.521L53.3776 41.4103L47.3264 45.9576C47.027 45.7835 46.6812 45.7058 46.3361 45.7351C45.9909 45.7644 45.6632 45.8992 45.3973 46.1212C45.1314 46.3432 44.9404 46.6417 44.8501 46.9761C44.7598 47.3105 44.7746 47.6646 44.8925 47.9903C45.0105 48.316 45.2258 48.5975 45.5093 48.7965C45.7928 48.9955 46.1307 49.1025 46.4771 49.1028C46.8234 49.1031 47.1615 48.9968 47.4454 48.7982C47.7292 48.5997 47.9451 48.3186 48.0636 47.9932L55.9359 43.8367Z" fill="#A0616A"/>
<path d="M63.6713 45.5158L63.2529 54.8589L76.3884 52.0041C75.2703 48.2498 74.5101 47.6094 75.3502 44.9967L63.6713 45.5158Z" fill="#A0616A"/>
<path d="M71.7479 28.3872H67.3711L65.4916 31.6035L64.5959 31.5541C64.1579 31.5299 63.7195 31.5953 63.3076 31.7463C62.8957 31.8973 62.5189 32.1307 62.2002 32.4322C61.8816 32.7337 61.6278 33.0971 61.4543 33.5001C61.2809 33.903 61.1914 34.3371 61.1914 34.7758L62.2949 36.4862C62.2949 36.4862 60.3214 39.9256 63.1642 41.6177C63.1642 41.6177 62.6572 44.8057 63.1642 44.7715C63.6713 44.7372 64.8392 44.0884 63.6713 44.7372C62.5034 45.386 62.5905 45.4732 62.7416 45.6242L62.8927 45.7753L75.1732 47.8374C75.1732 47.8374 75.5323 45.4567 75.5711 45.0321C75.6098 44.6074 75.3502 45.6456 75.6098 44.6074C75.8693 43.5693 76.2586 43.9586 75.8693 43.5693C75.48 43.18 78.3917 38.357 77.1954 36.4862L79.1135 34.6154C79.1135 32.8209 76.2313 31.3661 74.4367 31.3661H74.2069L71.7479 28.3872Z" fill="#E6E6E6"/>
<path d="M61.2026 106.355H59.431L58.5883 99.5217L61.2028 99.5219L61.2026 106.355Z" fill="#A0616A"/>
<path d="M55.8557 108.968C55.8566 109.167 55.9357 109.357 56.0758 109.497C56.216 109.638 56.406 109.717 56.6044 109.719H59.9392L60.0425 109.505L60.5142 108.531L60.6969 109.505L60.7373 109.719H61.9952L61.9772 109.503L61.6418 105.481L61.203 105.454L59.3073 105.342L58.8416 105.313V106.514C58.4882 106.89 55.7149 108.311 55.8557 108.968Z" fill="#2F2E41"/>
<path d="M87.5302 101.715L86.0404 102.673L81.6348 97.3824L83.8337 95.9681L87.5302 101.715Z" fill="#A0616A"/>
<path d="M84.4476 106.806C84.5557 106.972 84.7251 107.089 84.919 107.131C85.1129 107.174 85.3156 107.138 85.4832 107.031L88.2877 105.227L88.2588 104.991L88.1289 103.917L88.8091 104.637L88.959 104.795L90.0168 104.115L89.885 103.943L87.4269 100.742L87.0433 100.957L85.3882 101.888L84.9812 102.116L85.6309 103.126C85.5371 103.633 83.9736 106.329 84.4476 106.806Z" fill="#2F2E41"/>
<path d="M76.1825 50.9486C76.1825 50.9486 67.7861 55.39 63.3451 52.3598C63.3451 52.3598 62.3736 57.065 61.9843 57.4543C61.595 57.8436 60.9748 58.0132 61.4147 58.4474C61.8546 58.8817 62.0994 59.4682 61.2633 60.2131C60.4271 60.958 59.5933 60.7216 60.3995 61.4886C61.2057 62.2556 57.9616 81.0717 57.9616 81.0717C57.9616 81.0717 58.4806 98.5699 57.9616 99.0991C57.4425 99.6283 56.7487 99.7468 57.42 100.401C58.0913 101.056 58.0913 100.548 58.0913 101.451V102.353L58.3985 103.251H62.6118C62.6118 103.251 63.6287 102.069 62.6118 101.043C61.595 100.018 62.9213 99.7369 63.2314 98.7742C63.5415 97.8116 64.0606 98.8497 63.5415 97.8116C63.0224 96.7735 62.7731 96.971 62.768 96.2883C62.7629 95.6056 70.4191 68.8737 70.4191 68.8737L71.3464 83.6694L82.5005 99.8732L85.7836 97.4109C85.7836 97.4109 83.3933 94.0459 83.9522 93.5833C84.5112 93.1207 82.3048 92.5405 83.0006 92.0187C83.6963 91.4968 82.0214 90.971 82.6527 90.2793C83.2839 89.5875 81.783 87.8441 80.9133 87.8441C80.0435 87.8441 78.823 84.9378 78.823 84.9378L80.6451 61.9787L76.1825 50.9486Z" fill="#2F2E41"/>
<path d="M67.2831 18.943C67.2237 19.021 66.7503 18.979 66.181 18.8959C65.0554 18.7316 64.902 18.9269 64.0606 19.6923C62.8416 20.801 63.5347 27.5637 62.9357 29.0289L62.7422 29.1715C63.126 29.0982 63.503 28.9927 63.8691 28.8562C64.0759 28.2036 64.2833 27.549 64.4921 26.897C64.6891 27.4043 64.813 27.937 64.86 28.4792C65.1498 28.365 65.4379 28.0857 66.6486 27.711C67.2582 27.2975 71.6688 26.8816 72.2358 26.6997C73.6749 21.8034 71.3558 19.8234 67.2831 18.943Z" fill="#2F2E41"/>
<path d="M68.7723 26.4932C71.1001 26.4932 72.9872 24.6061 72.9872 22.2783C72.9872 19.9505 71.1001 18.0635 68.7723 18.0635C66.4445 18.0635 64.5575 19.9505 64.5575 22.2783C64.5575 24.6061 66.4445 26.4932 68.7723 26.4932Z" fill="#A0616A"/>
<path d="M71.4259 18.5716C71.1884 18.5365 70.9597 18.4564 70.7523 18.3354C70.6495 18.2733 70.5662 18.1836 70.512 18.0764C70.4578 17.9692 70.4348 17.849 70.4456 17.7293C70.4975 17.4299 70.8361 17.251 71.1395 17.2693C71.4416 17.3128 71.7286 17.4289 71.9759 17.6077C71.9488 17.3183 71.8251 17.0464 71.6248 16.8358C71.4246 16.6251 71.1593 16.4878 70.8716 16.446C71.2707 16.4245 71.6855 16.4055 72.0545 16.559C72.4235 16.7125 72.7309 17.0925 72.6644 17.4865C73.2847 17.4066 73.8965 17.8388 74.1526 18.4095C74.4087 18.9801 74.3579 19.6502 74.1533 20.2413C74.1331 20.3318 74.0937 20.4169 74.0378 20.4909C73.9818 20.5648 73.9106 20.6259 73.829 20.6699C73.6202 20.7491 73.3956 20.6163 73.2147 20.4853C72.2697 19.8011 71.4097 19.0068 70.6527 18.1192" fill="#2F2E41"/>
<path d="M73.2636 26.7593C73.0849 26.8435 73.178 27.1564 73.0391 27.2966C72.9789 27.3559 72.9062 27.4011 72.8263 27.429C72.8054 27.1677 72.7446 26.9113 72.6459 26.6685C72.6278 26.6244 72.5979 26.5751 72.5512 26.579C72.4967 26.5855 72.4824 26.6568 72.4811 26.71C72.4701 26.974 72.4117 27.2338 72.3085 27.477C72.3072 27.4796 72.3059 27.4834 72.3046 27.486C72.2644 27.4847 72.2229 27.4834 72.1839 27.4822C71.8829 27.4705 71.2159 26.6971 71.068 26.9592C71.5896 26.034 72.2255 24.6429 72.3228 23.5853C72.3565 23.3639 72.3401 23.1377 72.2748 22.9235C72.2407 22.8169 72.1767 22.7223 72.0904 22.651C72.0042 22.5797 71.8993 22.5347 71.7882 22.5212C71.7334 22.5187 71.6787 22.5283 71.628 22.5494C71.5774 22.5705 71.532 22.6026 71.4952 22.6432C71.4584 22.6839 71.431 22.7322 71.415 22.7847C71.399 22.8372 71.3949 22.8925 71.4028 22.9468L71.3275 22.9364C70.6294 22.3681 71.2315 21.3805 70.4191 20.99C70.144 20.8576 68.4597 21.3001 68.1625 21.2222C68.1561 20.9092 68.0924 20.6 67.9743 20.31C67.9562 20.2659 67.9263 20.2165 67.8796 20.2204C67.8251 20.2269 67.8108 20.2983 67.8095 20.3515C67.7985 20.6154 67.7401 20.8752 67.6369 21.1184C67.2253 21.06 66.8062 21.0821 66.4029 21.1833C66.0473 21.2767 65.7099 21.4376 65.3531 21.5233C65.1767 21.5773 64.9911 21.5949 64.8077 21.5748C64.6243 21.5547 64.4469 21.4974 64.2864 21.4065C63.8335 21.1028 63.7543 20.4307 63.9801 19.9349C64.1435 19.6169 64.3644 19.3318 64.6316 19.0941C64.8353 18.8968 65.0468 18.7073 65.2583 18.5179C65.4478 18.3479 65.6373 18.1779 65.8267 18.0079C66.0652 17.7834 66.3193 17.5762 66.5871 17.3876C67.0147 17.1074 67.4951 16.9174 67.9987 16.8295C68.5024 16.7416 69.0187 16.7575 69.516 16.8763C70.1129 17.0191 70.9109 16.818 71.4573 17.097C71.7427 17.2436 72.3747 17.8055 72.6252 18.0053C73.2662 18.5153 72.8324 18.0998 73.5335 18.3946C75.2054 19.0977 74.4661 26.1933 73.2636 26.7593Z" fill="#2F2E41"/>
<path d="M26.5958 57.5229C41.0319 57.5229 52.7346 45.8202 52.7346 31.3842C52.7346 16.9482 41.0319 5.24547 26.5958 5.24547C12.1598 5.24547 0.457092 16.9482 0.457092 31.3842C0.457092 45.8202 12.1598 57.5229 26.5958 57.5229Z" fill="white"/>
<path d="M26.5959 57.7838C12.0391 57.7838 0.196228 45.941 0.196228 31.3842C0.196228 16.8274 12.0391 4.98454 26.5959 4.98454C41.1527 4.98454 52.9955 16.8274 52.9955 31.3842C52.9955 45.941 41.1527 57.7838 26.5959 57.7838ZM26.5959 5.50637C12.3268 5.50637 0.718055 17.1151 0.718055 31.3842C0.718055 45.6532 12.3268 57.262 26.5959 57.262C40.8649 57.262 52.4737 45.6532 52.4737 31.3842C52.4737 17.1151 40.8649 5.50637 26.5959 5.50637Z" fill="#FEDC62"/>
<path d="M23.03 44.9882C22.5786 44.9882 22.1335 44.8831 21.7298 44.6812C21.3261 44.4793 20.9749 44.1861 20.7042 43.825L13.5731 34.3167C13.3441 34.0113 13.1774 33.6637 13.0826 33.2938C12.9879 32.9239 12.9669 32.539 13.0209 32.161C13.0749 31.783 13.2029 31.4194 13.3974 31.0909C13.592 30.7623 13.8493 30.4753 14.1548 30.2462C14.4602 30.0172 14.8078 29.8505 15.1777 29.7557C15.5476 29.661 15.9325 29.64 16.3105 29.694C16.6885 29.748 17.0521 29.876 17.3806 30.0705C17.7092 30.2651 17.9962 30.5224 18.2253 30.8279L22.8906 37.0479L34.8731 19.0745C35.301 18.4334 35.9661 17.9885 36.722 17.8375C37.4779 17.6866 38.2628 17.842 38.9042 18.2696C39.5456 18.6972 39.9909 19.3619 40.1424 20.1178C40.2938 20.8736 40.1388 21.6586 39.7117 22.3002L25.4495 43.6934C25.1916 44.0803 24.8446 44.3997 24.4376 44.6248C24.0307 44.85 23.5758 44.9743 23.1109 44.9873C23.084 44.9878 23.057 44.9882 23.03 44.9882Z" fill="#FEDC62"/>
</svg>
