<svg width="109" height="100" viewBox="0 0 109 100" fill="none" xmlns="http://www.w3.org/2000/svg">
<rect x="9" width="100" height="100" rx="15" fill="#89CFFB"/>
<path d="M0.560408 29.5567C0.364592 29.6118 0.198617 29.7424 0.0988922 29.9198C-0.00083234 30.0972 -0.0261642 30.307 0.0284546 30.5031L12.8549 76.3443C12.9099 76.5403 13.0404 76.7064 13.2177 76.8062C13.395 76.906 13.6046 76.9313 13.8006 76.8766L61.0852 63.6267C61.281 63.5716 61.447 63.441 61.5467 63.2636C61.6465 63.0862 61.6718 62.8764 61.6172 62.6803L48.7908 16.8391C48.7357 16.6432 48.6052 16.4771 48.4279 16.3773C48.2506 16.2775 48.041 16.2521 47.8451 16.3068L0.560408 29.5567Z" fill="#E6E6E6"/>
<path d="M14.3947 74.712L59.454 62.0857L47.2507 18.4714L2.19141 31.0978L14.3947 74.712Z" fill="white"/>
<path d="M8.14889 36.9215C7.84826 37.0058 7.72431 37.5055 7.8726 38.0355C8.02089 38.5655 8.38614 38.9281 8.68677 38.8439L29.2376 33.0852C29.5383 33.001 29.6622 32.5012 29.5139 31.9712C29.3656 31.4413 29.0004 31.0786 28.6998 31.1628L8.14889 36.9215Z" fill="#E6E6E6"/>
<path d="M9.80391 42.8365C9.50329 42.9208 9.37934 43.4205 9.52763 43.9505C9.67592 44.4805 10.0412 44.8431 10.3418 44.7589L30.8927 39.0002C31.1933 38.916 31.3172 38.4162 31.169 37.8862C31.0207 37.3563 30.6554 36.9936 30.3548 37.0778L9.80391 42.8365Z" fill="#E6E6E6"/>
<path d="M11.4398 48.6833C11.1392 48.7675 11.0152 49.2673 11.1635 49.7972C11.3118 50.3272 11.677 50.6899 11.9777 50.6057L32.5285 44.847C32.8292 44.7627 32.9531 44.263 32.8048 43.733C32.6565 43.203 32.2913 42.8404 31.9907 42.9246L11.4398 48.6833Z" fill="#E6E6E6"/>
<path d="M13.0948 54.5983C12.7942 54.6825 12.6702 55.1822 12.8185 55.7122C12.9668 56.2422 13.3321 56.6049 13.6327 56.5206L34.1836 50.7619C34.4842 50.6777 34.6081 50.178 34.4599 49.648C34.3116 49.118 33.9463 48.7553 33.6457 48.8396L13.0948 54.5983Z" fill="#E6E6E6"/>
<path d="M39.1291 28.3086C39.0029 28.3438 38.8848 28.4036 38.7816 28.4845C38.6784 28.5655 38.5922 28.6659 38.5279 28.7802C38.4636 28.8945 38.4224 29.0204 38.4067 29.1506C38.391 29.2809 38.4011 29.4129 38.4365 29.5392C38.4718 29.6655 38.5317 29.7837 38.6127 29.8868C38.6937 29.9899 38.7942 30.0761 38.9085 30.1403C39.0227 30.2046 39.1486 30.2457 39.2787 30.2612C39.4089 30.2768 39.5408 30.2665 39.667 30.231L43.5089 29.1544C43.7636 29.083 43.9796 28.9133 44.1093 28.6826C44.2389 28.4518 44.2717 28.179 44.2004 27.9241C44.1291 27.6692 43.9595 27.453 43.7289 27.3233C43.4984 27.1935 43.2257 27.1607 42.971 27.232L39.1291 28.3086Z" fill="#E6E6E6"/>
<path d="M40.752 34.1089C40.6258 34.1441 40.5077 34.2039 40.4045 34.2849C40.3014 34.3658 40.2152 34.4663 40.1508 34.5806C40.0865 34.6949 40.0453 34.8207 40.0296 34.951C40.0139 35.0812 40.0241 35.2132 40.0594 35.3396C40.0948 35.4659 40.1546 35.584 40.2356 35.6871C40.3166 35.7903 40.4171 35.8764 40.5314 35.9407C40.6457 36.0049 40.7715 36.046 40.9016 36.0615C41.0318 36.0771 41.1637 36.0668 41.2899 36.0313L45.1318 34.9547C45.3865 34.8834 45.6025 34.7136 45.7322 34.4829C45.8619 34.2522 45.8947 33.9793 45.8233 33.7244C45.752 33.4695 45.5824 33.2534 45.3518 33.1236C45.1213 32.9938 44.8487 32.961 44.5939 33.0324L40.752 34.1089Z" fill="#E6E6E6"/>
<path d="M42.375 39.9092C42.2488 39.9446 42.1309 40.0044 42.0279 40.0854C41.9249 40.1663 41.8388 40.2668 41.7746 40.381C41.7104 40.4953 41.6693 40.6211 41.6536 40.7512C41.638 40.8814 41.6481 41.0133 41.6834 41.1395C41.7187 41.2658 41.7786 41.3838 41.8595 41.4869C41.9404 41.59 42.0407 41.6761 42.1549 41.7404C42.2691 41.8046 42.3948 41.8458 42.5248 41.8614C42.6548 41.8771 42.7867 41.8669 42.9128 41.8316L46.7547 40.755C47.0094 40.6836 47.2254 40.5139 47.3551 40.2832C47.4848 40.0525 47.5176 39.7796 47.4462 39.5247C47.3749 39.2698 47.2053 39.0537 46.9748 38.9239C46.7442 38.7941 46.4716 38.7613 46.2168 38.8327L42.375 39.9092Z" fill="#E6E6E6"/>
<path d="M43.9979 45.7095C43.7434 45.7812 43.5278 45.9509 43.3983 46.1816C43.2689 46.4122 43.2362 46.6848 43.3075 46.9395C43.3787 47.1943 43.5481 47.4103 43.7784 47.5401C44.0087 47.6699 44.2811 47.7029 44.5358 47.6319L48.3776 46.5553C48.6321 46.4837 48.8477 46.314 48.9772 46.0833C49.1067 45.8527 49.1393 45.5801 49.0681 45.3253C48.9968 45.0706 48.8274 44.8546 48.5971 44.7248C48.3668 44.595 48.0944 44.5619 47.8398 44.633L43.9979 45.7095Z" fill="#E6E6E6"/>
<path d="M45.5485 55.7635C45.3876 55.8084 45.2372 55.8845 45.1057 55.9877C44.9743 56.0908 44.8644 56.2188 44.7825 56.3645C44.7005 56.5101 44.648 56.6705 44.628 56.8364C44.608 57.0024 44.6209 57.1706 44.666 57.3316C44.711 57.4925 44.7873 57.643 44.8905 57.7744C44.9937 57.9059 45.1218 58.0156 45.2674 58.0975C45.413 58.1794 45.5733 58.2317 45.7392 58.2515C45.905 58.2713 46.0731 58.2582 46.2339 58.213L51.1293 56.8412C51.4539 56.7503 51.729 56.534 51.8943 56.24C52.0595 55.946 52.1013 55.5984 52.0104 55.2735C51.9195 54.9487 51.7034 54.6733 51.4097 54.5079C51.1159 54.3426 50.7685 54.3008 50.4439 54.3917L45.5485 55.7635Z" fill="#FEDC62"/>
<path d="M50.5866 50.8165L14.3615 60.9673L14.4516 61.2896L50.6767 51.1387L50.5866 50.8165Z" fill="#E6E6E6"/>
<path d="M86.9741 94.1408L84.0688 94.8437L79.9771 83.9637L84.265 82.9263L86.9741 94.1408Z" fill="#A0616A"/>
<path d="M79.0564 99L79.0367 98.9187C78.8065 97.9609 78.9653 96.9507 79.4783 96.1099C79.9913 95.2691 80.8167 94.6663 81.7733 94.4338L87.4576 93.0585L88.3498 96.7517L79.0564 99Z" fill="#2F2E41"/>
<path d="M74.1127 96.1214L71.1238 96.1213L69.7018 84.5837L74.1132 84.5839L74.1127 96.1214Z" fill="#A0616A"/>
<path d="M74.8365 98.9827L65.2754 98.9823V98.8986C65.2754 97.9131 65.6666 96.968 66.363 96.2712C67.0593 95.5744 68.0037 95.1829 68.9885 95.1829H68.9886L74.8367 95.1832L74.8365 98.9827Z" fill="#2F2E41"/>
<path d="M69.6993 91.6173L66.7971 57.0042L78.8109 54.7881L78.8584 54.7795L82.3747 57.0417L81.1508 69.7801L86.786 89.6404L81.9203 90.9218L76.2762 72.5026L74.9845 66.9014L74.3226 74.1797L74.814 92.1291L69.6993 91.6173Z" fill="#2F2E41"/>
<path d="M66.4251 57.7893L66.3933 57.7491L70.5448 26.4679L70.5502 26.4269L70.5794 26.3976C70.6406 26.3364 72.0952 24.898 73.5913 24.898C73.8076 24.898 74.0132 24.8925 74.2105 24.8875C75.3553 24.8577 76.2597 24.8339 77.3345 25.9096C78.4296 27.0054 82.0025 31.0069 82.0025 36.4873C82.0025 41.7918 82.4852 58.2766 82.4901 58.4424L82.4969 58.6752L82.3018 58.5482C82.2537 58.5172 77.4481 55.455 73.4178 58.3016C72.1583 59.1913 71.0268 59.5032 70.0593 59.5032C67.8076 59.5032 66.4443 57.8139 66.4251 57.7893Z" fill="#FEDC62"/>
<path d="M75.8281 22.3169C78.73 20.7294 79.7965 17.0884 78.2102 14.1843C76.6239 11.2803 72.9855 10.2131 70.0836 11.8005C67.1818 13.388 66.1153 17.0291 67.7016 19.9331C69.2879 22.8371 72.9263 23.9044 75.8281 22.3169Z" fill="#A0616A"/>
<path d="M63.7892 64.5119C64.0725 64.2922 64.3042 64.013 64.468 63.694C64.6318 63.3749 64.7238 63.0238 64.7373 62.6654C64.7509 62.307 64.6858 61.95 64.5465 61.6194C64.4073 61.2889 64.1973 60.993 63.9314 60.7525L67.332 52.7253L62.8794 53.5454L60.3328 61.0424C59.9586 61.5162 59.7711 62.1109 59.8058 62.7138C59.8405 63.3167 60.095 63.8859 60.5211 64.3135C60.9471 64.7412 61.5151 64.9976 62.1175 65.0341C62.7198 65.0707 63.3146 64.8849 63.7892 64.5119H63.7892Z" fill="#A0616A"/>
<path d="M60.5037 58.2678L61.5987 55.9542C61.531 55.9134 61.4753 55.8556 61.437 55.7865C60.4139 54.0121 66.5937 39.2769 67.0056 38.2995C66.9428 37.768 66.294 32.1349 66.7684 30.2361C67.3267 28.0009 68.4733 26.9592 70.602 26.7529C72.9497 26.5322 73.5831 29.7226 73.5891 29.755L73.5913 37.9569L70.897 47.3983L64.7523 59.9426L60.5037 58.2678Z" fill="#FEDC62"/>
<path d="M73.7216 19.3164C73.0037 19.4099 72.4623 18.6749 72.2111 17.9955C71.96 17.316 71.7686 16.5251 71.1445 16.1581C70.2919 15.6566 69.201 16.2597 68.2259 16.0943C67.1248 15.9075 66.4088 14.7396 66.3527 13.6233C66.2966 12.5071 66.7405 11.4335 67.176 10.4043L67.3281 11.6833C67.3078 11.2498 67.3989 10.8184 67.5928 10.4302C67.7867 10.042 68.077 9.71013 68.4357 9.46628L68.2397 11.3431C68.3626 10.2916 69.4945 9.47693 70.5296 9.69482L70.4988 10.8131C71.7706 10.6617 73.0535 10.5102 74.329 10.6255C75.6046 10.7408 76.8891 11.1447 77.8559 11.9854C79.302 13.2429 79.8302 15.3136 79.6529 17.2226C79.4756 19.1316 78.6881 20.925 77.8674 22.6574C77.6609 23.0933 77.3753 23.5852 76.8965 23.6407C76.4663 23.6906 76.0726 23.3307 75.9388 22.9184C75.8051 22.5062 75.8704 22.0583 75.9505 21.6324C76.0715 20.9889 76.224 20.3312 76.1102 19.6864C75.9965 19.0417 75.5329 18.4045 74.8835 18.3255C74.234 18.2464 73.5694 18.9894 73.8816 19.5648L73.7216 19.3164Z" fill="#2F2E41"/>
</svg>
