<svg width="20" height="16" viewBox="0 0 20 16" fill="none" xmlns="http://www.w3.org/2000/svg">
<path fill-rule="evenodd" clip-rule="evenodd" d="M7.5 0.5C7.62845 0.500055 7.75376 0.539683 7.85888 0.613492C7.964 0.687301 8.04383 0.791706 8.0875 0.9125L12.5 13.045L14.4125 7.785C14.4566 7.66467 14.5366 7.56081 14.6417 7.48747C14.7468 7.41413 14.8719 7.37487 15 7.375H19.375C19.5408 7.375 19.6997 7.44085 19.8169 7.55806C19.9342 7.67527 20 7.83424 20 8C20 8.16576 19.9342 8.32473 19.8169 8.44194C19.6997 8.55915 19.5408 8.625 19.375 8.625H15.4375L13.0875 15.0875C13.0437 15.2082 12.9638 15.3124 12.8587 15.3861C12.7536 15.4597 12.6284 15.4993 12.5 15.4993C12.3716 15.4993 12.2464 15.4597 12.1413 15.3861C12.0362 15.3124 11.9563 15.2082 11.9125 15.0875L7.5 2.955L5.5875 8.21375C5.54362 8.33431 5.46371 8.43845 5.3586 8.51202C5.2535 8.58559 5.1283 8.62504 5 8.625H0.625C0.45924 8.625 0.300269 8.55915 0.183058 8.44194C0.065848 8.32473 0 8.16576 0 8C0 7.83424 0.065848 7.67527 0.183058 7.55806C0.300269 7.44085 0.45924 7.375 0.625 7.375H4.5625L6.9125 0.9125C6.95617 0.791706 7.036 0.687301 7.14112 0.613492C7.24624 0.539683 7.37155 0.500055 7.5 0.5Z" fill="#292930"/>
</svg>
