<svg width="18" height="18" viewBox="0 0 18 18" fill="none" xmlns="http://www.w3.org/2000/svg">
<path d="M9.4425 0.432503C9.38444 0.374299 9.31547 0.328121 9.23954 0.296613C9.16361 0.265105 9.08221 0.248886 9 0.248886C8.91779 0.248886 8.83639 0.265105 8.76046 0.296613C8.68453 0.328121 8.61556 0.374299 8.5575 0.432503L1.0575 7.9325C0.999499 7.99065 0.953526 8.05966 0.922211 8.13559C0.890897 8.21152 0.874854 8.29287 0.875001 8.375V17.125C0.875001 17.2908 0.940849 17.4497 1.05806 17.5669C1.17527 17.6842 1.33424 17.75 1.5 17.75H7.125C7.29076 17.75 7.44973 17.6842 7.56694 17.5669C7.68415 17.4497 7.75 17.2908 7.75 17.125V12.125H10.25V17.125C10.25 17.2908 10.3158 17.4497 10.4331 17.5669C10.5503 17.6842 10.7092 17.75 10.875 17.75H16.5C16.6658 17.75 16.8247 17.6842 16.9419 17.5669C17.0592 17.4497 17.125 17.2908 17.125 17.125V8.375C17.1251 8.29287 17.1091 8.21152 17.0778 8.13559C17.0465 8.05966 17.0005 7.99065 16.9425 7.9325L15.25 6.24125V2.125C15.25 1.95924 15.1842 1.80027 15.0669 1.68306C14.9497 1.56585 14.7908 1.5 14.625 1.5H13.375C13.2092 1.5 13.0503 1.56585 12.9331 1.68306C12.8158 1.80027 12.75 1.95924 12.75 2.125V3.74125L9.4425 0.432503ZM2.125 16.5V8.63375L9 1.75875L15.875 8.63375V16.5H11.5V11.5C11.5 11.3342 11.4342 11.1753 11.3169 11.0581C11.1997 10.9409 11.0408 10.875 10.875 10.875H7.125C6.95924 10.875 6.80027 10.9409 6.68306 11.0581C6.56585 11.1753 6.5 11.3342 6.5 11.5V16.5H2.125Z" fill="#292930"/>
</svg>
