<svg width="164" height="117" viewBox="0 0 164 117" fill="none" xmlns="http://www.w3.org/2000/svg">
<path d="M83.7594 116.752C88.692 116.752 92.6906 112.704 92.6906 107.711C92.6906 102.717 88.692 98.6693 83.7594 98.6693C78.8268 98.6693 74.8281 102.717 74.8281 107.711C74.8281 112.704 78.8268 116.752 83.7594 116.752Z" fill="#FEDC62"/>
<path d="M137.113 116.244C142.11 114.725 147.422 113.141 151.384 109.53C154.925 106.303 157.316 101.375 155.849 96.5353C154.385 91.7057 150 88.4853 145.473 86.8835C142.905 85.9751 140.219 85.4711 137.534 85.0752C134.614 84.6448 131.682 84.2922 128.752 83.9529C116.885 82.5789 104.974 81.7395 93.0183 81.4348C87.1189 81.2844 81.2206 81.288 75.3204 81.3747C70.0511 81.4522 64.5015 81.4502 59.6133 79.1831C55.8119 77.4201 52.3619 74.2125 51.3027 69.9975C50.08 65.1319 52.3352 60.177 55.5702 56.6532C57.2755 54.7957 59.2684 53.2324 61.3243 51.7949C63.5547 50.2354 65.8628 48.7864 68.221 47.4338C72.8654 44.771 77.7211 42.5049 82.7375 40.6589C85.2121 39.748 87.7235 38.9621 90.2567 38.2371C92.3958 37.6249 94.5415 37.0118 96.6087 36.1777C100.605 34.5653 104.406 31.834 105.422 27.3562C106.386 23.1123 104.762 18.5053 101.915 15.3526C98.6216 11.7052 93.6557 10.1063 88.8948 9.8476C83.55 9.55717 78.3283 10.9113 73.3046 12.63C67.9465 14.463 62.7039 16.5707 57.2326 18.0554C51.807 19.5263 46.2765 20.567 40.6912 21.1682C37.957 21.4629 35.1402 21.7957 32.3897 21.5701C30.0846 21.3809 27.7913 20.6947 26.0924 19.0385C24.6357 17.6185 23.768 15.6669 24.0663 13.6073C24.1205 13.2332 24.6818 13.3923 24.628 13.7641C24.2648 16.2711 25.9482 18.5813 28.0227 19.7647C30.4202 21.1324 33.3376 21.1342 36.0068 20.9778C41.7944 20.6239 47.5428 19.7827 53.1925 18.4628C58.744 17.1792 64.0972 15.3442 69.4443 13.3841C74.5226 11.5224 79.7145 9.70543 85.14 9.30221C89.8475 8.95233 94.7996 9.64661 98.9007 12.1371C102.505 14.3259 105.155 17.9761 106 22.1648C106.825 26.258 105.682 30.3778 102.622 33.2341C99.4527 36.1915 95.1076 37.4559 91.0583 38.6204C85.9224 40.0973 80.8966 41.8238 76.032 44.0655C71.1011 46.3313 66.372 49.0227 61.8973 52.11C57.578 55.098 53.3154 58.8577 51.9493 64.1883C51.313 66.6714 51.4305 69.305 52.4952 71.6504C53.442 73.7358 55.0011 75.49 56.8175 76.843C61.1512 80.0712 66.6133 80.7341 71.8481 80.8C77.7274 80.8741 83.607 80.6732 89.4882 80.7709C101.474 80.9701 113.435 81.7086 125.372 82.9866C128.363 83.3071 131.35 83.6613 134.334 84.0494C137.018 84.3984 139.71 84.7453 142.349 85.3652C147.04 86.4675 151.605 88.587 154.521 92.6137C155.815 94.359 156.616 96.4273 156.84 98.5979C157.044 100.863 156.497 103.132 155.485 105.147C153.246 109.607 149.052 112.444 144.598 114.307C142.212 115.306 139.738 116.062 137.268 116.813C136.908 116.922 136.755 116.353 137.113 116.244L137.113 116.244Z" fill="#F2F2F2"/>
<path d="M24.443 18.3776C27.0165 18.3776 29.1028 16.2656 29.1028 13.6604C29.1028 11.0551 27.0165 8.94312 24.443 8.94312C21.8695 8.94312 19.7832 11.0551 19.7832 13.6604C19.7832 16.2656 21.8695 18.3776 24.443 18.3776Z" fill="#F2F2F2"/>
<path d="M56.7711 27.3207C59.3446 27.3207 61.4309 25.2088 61.4309 22.6035C61.4309 19.9982 59.3446 17.8862 56.7711 17.8862C54.1976 17.8862 52.1113 19.9982 52.1113 22.6035C52.1113 25.2088 54.1976 27.3207 56.7711 27.3207Z" fill="#F2F2F2"/>
<path d="M84.1461 9.43451C86.7196 9.43451 88.8059 7.32252 88.8059 4.71725C88.8059 2.11199 86.7196 0 84.1461 0C81.5726 0 79.4863 2.11199 79.4863 4.71725C79.4863 7.32252 81.5726 9.43451 84.1461 9.43451Z" fill="#F2F2F2"/>
<path d="M101.232 29.4828C103.806 29.4828 105.892 27.3709 105.892 24.7656C105.892 22.1603 103.806 20.0483 101.232 20.0483C98.6585 20.0483 96.5723 22.1603 96.5723 24.7656C96.5723 27.3709 98.6585 29.4828 101.232 29.4828Z" fill="#F2F2F2"/>
<path d="M78.1285 52.676C80.7021 52.676 82.7883 50.564 82.7883 47.9588C82.7883 45.3535 80.7021 43.2415 78.1285 43.2415C75.555 43.2415 73.4688 45.3535 73.4688 47.9588C73.4688 50.564 75.555 52.676 78.1285 52.676Z" fill="#F2F2F2"/>
<path d="M48.8102 63.8795C51.3837 63.8795 53.47 61.7675 53.47 59.1623C53.47 56.557 51.3837 54.445 48.8102 54.445C46.2366 54.445 44.1504 56.557 44.1504 59.1623C44.1504 61.7675 46.2366 63.8795 48.8102 63.8795Z" fill="#F2F2F2"/>
<path d="M79.8746 81.3726C82.4481 81.3726 84.5344 79.2606 84.5344 76.6554C84.5344 74.0501 82.4481 71.9381 79.8746 71.9381C77.3011 71.9381 75.2148 74.0501 75.2148 76.6554C75.2148 79.2606 77.3011 81.3726 79.8746 81.3726Z" fill="#F2F2F2"/>
<path d="M113.269 91.2003C115.843 91.2003 117.929 89.0883 117.929 86.483C117.929 83.8777 115.843 81.7657 113.269 81.7657C110.696 81.7657 108.609 83.8777 108.609 86.483C108.609 89.0883 110.696 91.2003 113.269 91.2003Z" fill="#F2F2F2"/>
<path d="M152.296 89.0381C154.87 89.0381 156.956 86.9262 156.956 84.3209C156.956 81.7156 154.87 79.6036 152.296 79.6036C149.723 79.6036 147.637 81.7156 147.637 84.3209C147.637 86.9262 149.723 89.0381 152.296 89.0381Z" fill="#F2F2F2"/>
<path d="M82.801 13.3662C68.8427 13.466 57.4138 24.949 57.2155 39.0785C57.2136 39.2089 57.2128 40.1262 57.2129 41.3259C57.213 43.0849 57.9033 44.7719 59.1319 46.0158C60.3605 47.2596 62.0269 47.9585 63.7645 47.9587H63.7645C64.6259 47.9586 65.4788 47.7865 66.2744 47.4525C67.0701 47.1185 67.793 46.6291 68.4017 46.0122C69.0104 45.3953 69.4931 44.663 69.8222 43.8571C70.1513 43.0513 70.3203 42.1877 70.3195 41.3157C70.3188 40.4996 70.3184 39.9348 70.3184 39.9001C70.318 37.7164 70.8791 35.5702 71.9465 33.6726C73.0139 31.775 74.5509 30.1914 76.4063 29.0776C78.2616 27.9637 80.3715 27.358 82.5282 27.32C84.685 27.2819 86.8144 27.8129 88.7069 28.8607C90.5995 29.9085 92.19 31.437 93.322 33.2958C94.4541 35.1546 95.0886 37.2797 95.1633 39.4621C95.238 41.6445 94.7501 43.8089 93.7478 45.7426C92.7455 47.6762 91.2633 49.3124 89.4469 50.4902L89.4492 50.493C89.4492 50.493 80.1241 56.5703 77.2811 64.9073L77.2836 64.9078C76.7836 66.6157 76.5303 68.3879 76.5315 70.1691C76.5315 70.9014 76.574 77.3082 76.6563 82.5082C76.685 84.3025 77.4094 86.0133 78.673 87.2717C79.9367 88.5301 81.6384 89.2351 83.411 89.2347H83.411C84.3017 89.2347 85.1836 89.0564 86.0059 88.71C86.8283 88.3636 87.5748 87.8561 88.2027 87.2165C88.8305 86.577 89.3273 85.818 89.6643 84.9834C90.0013 84.1488 90.172 83.255 90.1665 82.3533C90.138 77.591 90.1225 72.0458 90.1225 71.6433C90.1225 66.5241 95.0008 61.4236 99.0079 58.0974C103.622 54.2672 106.943 49.0476 108.276 43.1596C108.571 41.9474 108.734 40.706 108.762 39.4579C108.762 36.0155 108.089 32.6072 106.782 29.4292C105.475 26.2513 103.56 23.3666 101.147 20.9413C98.7334 18.516 95.8701 16.598 92.7215 15.298C89.5729 13.9979 86.2013 13.3414 82.801 13.3662Z" fill="#FEDC62"/>
<path d="M122.018 53.6579C125.235 53.6579 127.843 51.018 127.843 47.7614C127.843 44.5048 125.235 41.8648 122.018 41.8648C118.801 41.8648 116.193 44.5048 116.193 47.7614C116.193 51.018 118.801 53.6579 122.018 53.6579Z" fill="#2F2E41"/>
<path d="M111.255 114.419H108.875L107.742 105.124H111.255L111.255 114.419Z" fill="#A0616A"/>
<path d="M107.174 113.73H111.764V116.656H104.283C104.283 116.272 104.358 115.891 104.503 115.536C104.648 115.181 104.861 114.859 105.13 114.587C105.398 114.315 105.717 114.1 106.067 113.953C106.418 113.806 106.794 113.73 107.174 113.73Z" fill="#2F2E41"/>
<path d="M129.7 114.419H127.32L126.188 105.124H129.701L129.7 114.419Z" fill="#A0616A"/>
<path d="M125.619 113.73H130.21V116.656H122.729C122.729 116.272 122.803 115.891 122.949 115.536C123.094 115.181 123.307 114.859 123.575 114.587C123.844 114.315 124.162 114.1 124.513 113.953C124.864 113.806 125.239 113.73 125.619 113.73Z" fill="#2F2E41"/>
<path d="M121.132 53.6924C123.766 53.6924 125.901 51.531 125.901 48.8649C125.901 46.1987 123.766 44.0374 121.132 44.0374C118.498 44.0374 116.363 46.1987 116.363 48.8649C116.363 51.531 118.498 53.6924 121.132 53.6924Z" fill="#A0616A"/>
<path d="M123.976 69.2662L126.11 64.3032C126.628 63.139 126.776 61.8406 126.535 60.5873C126.293 59.3339 125.673 58.1874 124.76 57.306C124.573 57.1183 124.374 56.9431 124.164 56.7812C123.111 55.9474 121.814 55.4929 120.477 55.4898C119.578 55.4933 118.691 55.6931 117.875 56.0755C117.805 56.107 117.738 56.1404 117.668 56.1738C117.534 56.2387 117.402 56.3094 117.273 56.3822C116.438 56.868 115.726 57.5459 115.197 58.3612C114.667 59.1765 114.334 60.1064 114.225 61.0758L113.283 69.0637C113.047 69.6907 104.597 92.3335 107.552 109.62C107.583 109.805 107.672 109.974 107.806 110.104C107.939 110.234 108.11 110.317 108.294 110.342L111.29 110.754C111.508 110.785 111.73 110.73 111.911 110.601C112.091 110.472 112.217 110.279 112.262 110.061L117.289 85.8041C117.32 85.6534 117.401 85.5176 117.517 85.4186C117.634 85.3195 117.78 85.2628 117.932 85.2576C118.084 85.2524 118.233 85.299 118.356 85.3898C118.479 85.4807 118.568 85.6106 118.609 85.7589L125.712 111.267C125.762 111.453 125.871 111.616 126.023 111.733C126.174 111.849 126.358 111.912 126.548 111.912C126.605 111.912 126.662 111.906 126.717 111.896L130.377 111.183C130.59 111.143 130.78 111.023 130.91 110.848C131.041 110.674 131.102 110.456 131.082 110.237C130.544 104.166 127.686 73.7534 123.976 69.2662Z" fill="#2F2E41"/>
<path d="M102.599 52.8824C102.566 53.1694 102.595 53.4602 102.685 53.7344C102.775 54.0087 102.924 54.2596 103.12 54.4695C103.316 54.6795 103.555 54.8433 103.821 54.9496C104.086 55.0558 104.371 55.1018 104.656 55.0844L107.322 61.5691L109.338 58.5434L106.498 52.8492C106.437 52.3666 106.204 51.9233 105.842 51.6033C105.48 51.2833 105.014 51.1088 104.534 51.1129C104.053 51.1169 103.591 51.2993 103.234 51.6255C102.878 51.9516 102.652 52.3988 102.599 52.8824L102.599 52.8824Z" fill="#A0616A"/>
<path d="M120.869 75.7957C121.152 75.7614 121.425 75.6647 121.667 75.5122C121.91 75.3598 122.116 75.1553 122.272 74.9133C122.428 74.6714 122.53 74.3977 122.57 74.1116C122.61 73.8256 122.588 73.534 122.505 73.2576L128.113 69.1225L124.737 67.8425L119.929 71.9655C119.479 72.1377 119.108 72.4707 118.885 72.9016C118.661 73.3325 118.602 73.8313 118.718 74.3034C118.834 74.7755 119.117 75.1882 119.513 75.4632C119.91 75.7383 120.392 75.8566 120.869 75.7957Z" fill="#A0616A"/>
<path d="M111.727 65.8924C111.512 65.8922 111.297 65.8707 111.086 65.8285C110.576 65.7302 110.098 65.5063 109.693 65.1767C109.289 64.8471 108.971 64.4218 108.767 63.9384L105.032 59.3286C104.953 59.2311 104.896 59.1177 104.864 58.9959C104.831 58.8742 104.825 58.7469 104.846 58.6225C104.866 58.4982 104.913 58.3797 104.982 58.275C105.051 58.1703 105.142 58.0818 105.248 58.0155L107.905 56.3506C108.003 56.2891 108.112 56.2479 108.226 56.2293C108.34 56.2108 108.456 56.2152 108.568 56.2425C108.681 56.2697 108.786 56.3191 108.88 56.388C108.973 56.4568 109.052 56.5436 109.112 56.6435L111.744 61.0333L116.784 57.2621C117.186 57.0491 117.649 56.9893 118.09 57.0938C118.532 57.1982 118.921 57.4599 119.188 57.831C119.454 58.2021 119.58 58.6578 119.541 59.115C119.503 59.5721 119.304 60.0001 118.98 60.3208L113.949 64.9666C113.358 65.5598 112.559 65.8926 111.727 65.8924Z" fill="#2F2E41"/>
<path d="M125.345 72.8253C125.338 72.8253 125.332 72.8253 125.325 72.8251C125.202 72.8221 125.082 72.793 124.971 72.7398C124.86 72.6867 124.762 72.6106 124.682 72.5164L122.32 69.7267C122.239 69.6317 122.18 69.5205 122.145 69.4004C122.11 69.2803 122.101 69.1542 122.118 69.0302C122.134 68.9062 122.177 68.7873 122.243 68.6813C122.308 68.5752 122.396 68.4845 122.498 68.4151L126.922 65.43L122.915 60.553C122.681 60.1596 122.596 59.6945 122.674 59.2425C122.751 58.7906 122.987 58.382 123.338 58.0915C123.688 57.801 124.131 57.6479 124.584 57.6602C125.037 57.6725 125.47 57.8494 125.805 58.1585L130.675 62.9765C131.058 63.331 131.351 63.7743 131.528 64.2685C131.705 64.7627 131.76 65.2928 131.69 65.8136C131.62 66.3343 131.426 66.8301 131.125 67.2582C130.824 67.6864 130.425 68.0342 129.962 68.2717L125.981 72.5475C125.899 72.6352 125.801 72.705 125.691 72.7528C125.582 72.8005 125.464 72.8252 125.345 72.8253Z" fill="#2F2E41"/>
<path d="M119.919 62.5457C119.881 62.5457 119.843 62.5433 119.806 62.5384C119.641 62.5182 119.486 62.4506 119.358 62.3437C119.231 62.2368 119.136 62.095 119.085 61.9352L117.31 56.426C117.266 56.2867 117.273 56.1359 117.33 56.0013C117.386 55.8667 117.49 55.7575 117.62 55.6939L117.677 55.6664C117.73 55.6413 117.781 55.6164 117.834 55.5926C118.662 55.204 119.563 55.0013 120.475 54.9984C121.66 55.0006 122.818 55.3529 123.807 56.012C123.94 56.1014 124.033 56.2399 124.065 56.3978C124.098 56.5557 124.068 56.7202 123.982 56.8561L120.652 62.137C120.574 62.2624 120.466 62.3656 120.338 62.4371C120.21 62.5086 120.066 62.546 119.919 62.5457Z" fill="#E6E6E6"/>
<path d="M126.611 45.1289C127.664 45.1289 128.517 44.2651 128.517 43.1994C128.517 42.1338 127.664 41.27 126.611 41.27C125.558 41.27 124.705 42.1338 124.705 43.1994C124.705 44.2651 125.558 45.1289 126.611 45.1289Z" fill="#2F2E41"/>
<path d="M120.077 41.0786C118.739 41.0786 117.455 41.617 116.508 42.5754C115.561 43.5338 115.029 44.8336 115.029 46.189V48.351H117.656L118.912 46.189L119.289 48.351H127.261L125.125 46.189C125.125 44.8336 124.594 43.5338 123.647 42.5754C122.7 41.617 121.416 41.0786 120.077 41.0786Z" fill="#2F2E41"/>
<path d="M127.59 41.8778C127.801 41.2106 128.237 40.64 128.822 40.2663C129.407 39.8926 130.104 39.7397 130.79 39.8345C132.004 40.0401 132.965 41.0285 133.537 42.1325C134.109 43.2364 134.373 44.4719 134.758 45.6562C135.143 46.8405 135.688 48.0313 136.659 48.7979C137.631 49.5645 139.121 49.7725 140.075 48.9839C139.966 49.8058 139.604 50.5722 139.041 51.1747C138.479 51.7773 137.743 52.1854 136.938 52.3415C136.134 52.4976 135.301 52.3936 134.558 52.0444C133.815 51.6951 133.2 51.1183 132.798 50.3954C132.295 49.4889 132.165 48.4265 132.016 47.3977C131.866 46.369 131.673 45.3045 131.072 44.4612C130.471 43.6178 129.346 43.067 128.392 43.4512L127.59 41.8778Z" fill="#2F2E41"/>
<path d="M65.6144 44.8214C63.8767 44.8212 62.2104 44.1223 60.9817 42.8785C59.7531 41.6346 59.0628 39.9476 59.0627 38.1886C59.0626 36.9889 59.0634 36.0716 59.0652 35.9412C59.1204 31.8319 60.1427 27.7952 62.0473 24.166C58.9181 28.5025 57.1976 33.7162 57.1237 39.086C57.1219 39.2164 57.121 40.1337 57.1211 41.3334C57.1212 43.0925 57.8115 44.7794 59.0401 46.0233C60.2688 47.2672 61.9352 47.9661 63.6728 47.9663C65.1006 47.9657 66.4893 47.4934 67.6277 46.621C68.7662 45.7486 69.5923 44.5239 69.9805 43.1329C68.7809 44.222 67.2257 44.8234 65.6144 44.8214Z" fill="#3F3D56"/>
<path d="M83.2462 27.3422C85.255 27.4393 87.2105 28.0286 88.9448 29.0593C90.6791 30.09 92.1403 31.5314 93.2031 33.2598C94.2659 34.9882 94.8985 36.9518 95.0465 38.9822C95.1945 41.0126 94.8535 43.049 94.0528 44.9165C95.211 43.5396 96.0622 41.9261 96.5485 40.1859C97.0348 38.4458 97.1447 36.62 96.8708 34.8329C96.5969 33.0458 95.9455 31.3396 94.9612 29.8305C93.9768 28.3213 92.6826 27.0448 91.1667 26.088C89.6509 25.1311 87.949 24.5164 86.1772 24.2857C84.4054 24.055 82.6053 24.2138 80.8996 24.7512C79.1939 25.2887 77.6227 26.1921 76.2932 27.4C74.9636 28.6078 73.907 30.0917 73.1953 31.7504C74.4253 30.2856 75.9713 29.1263 77.7139 28.362C79.4565 27.5977 81.3493 27.2488 83.2462 27.3422Z" fill="#3F3D56"/>
<path d="M85.2625 86.0974C83.4899 86.0978 81.7882 85.3928 80.5245 84.1344C79.2609 82.876 78.5365 81.1651 78.5077 79.3709C78.4256 74.1709 78.383 67.7641 78.383 67.0318C78.3818 65.2505 78.6352 63.4784 79.1351 61.7705L79.1327 61.7699C79.4279 60.9127 79.7844 60.0784 80.1994 59.2736C78.9254 60.9923 77.9115 62.8935 77.1911 64.9148L77.1935 64.9154C76.6936 66.6233 76.4403 68.3954 76.4414 70.1767C76.4414 70.9089 76.484 77.3157 76.5662 82.5158C76.5949 84.31 77.3193 86.0208 78.583 87.2792C79.8466 88.5376 81.5483 89.2426 83.3209 89.2422C84.7824 89.242 86.2045 88.762 87.3738 87.8743C88.543 86.9867 89.3965 85.7392 89.8061 84.3189C88.5641 85.4654 86.9433 86.0998 85.2625 86.0974Z" fill="#3F3D56"/>
<path d="M24.5688 114.508L26.949 114.508L28.0815 105.214L24.5682 105.214L24.5688 114.508Z" fill="#FFB8B8"/>
<path d="M31.5391 116.746L24.058 116.746L24.0579 113.82L28.6485 113.82C29.4151 113.82 30.1503 114.128 30.6924 114.677C31.2345 115.225 31.539 115.97 31.5391 116.746L31.5391 116.746Z" fill="#2F2E41"/>
<path d="M16.026 114.508L18.4061 114.508L19.5387 105.214L16.0254 105.214L16.026 114.508Z" fill="#FFB8B8"/>
<path d="M22.9961 116.746L15.5151 116.746L15.5149 113.82L20.1056 113.82C20.8722 113.82 21.6073 114.128 22.1494 114.677C22.6915 115.225 22.9961 115.97 22.9961 116.746L22.9961 116.746Z" fill="#2F2E41"/>
<path d="M18.1067 111.65L15.7816 111.526C15.6617 111.52 15.5443 111.489 15.4361 111.437C15.3279 111.384 15.2311 111.31 15.1513 111.219C15.0715 111.128 15.0103 111.022 14.9712 110.908C14.9322 110.793 14.916 110.671 14.9237 110.55L17.7027 79.4029L30.4998 82.8987L31.7327 82.5582L27.8771 110.131C27.8442 110.339 27.7425 110.529 27.5886 110.67C27.4348 110.811 27.238 110.894 27.0309 110.907L24.5245 111.025C24.3992 111.032 24.2738 111.013 24.1563 110.968C24.0387 110.924 23.9315 110.855 23.8416 110.766C23.7516 110.678 23.6807 110.571 23.6335 110.454C23.5862 110.336 23.5636 110.209 23.5671 110.082L24.0212 93.5334C24.0233 93.4569 23.9971 93.3824 23.9476 93.3245C23.8981 93.2666 23.829 93.2295 23.7539 93.2207C23.6788 93.2118 23.6031 93.2317 23.5418 93.2765C23.4804 93.3213 23.4379 93.3877 23.4226 93.4627L19.043 110.919C19.0016 111.126 18.8906 111.312 18.7288 111.446C18.5671 111.579 18.3646 111.652 18.1558 111.651C18.1396 111.651 18.1232 111.651 18.1067 111.65Z" fill="#2F2E41"/>
<path d="M24.9953 53.9182C27.629 53.9182 29.764 51.7568 29.764 49.0906C29.764 46.4245 27.629 44.2631 24.9953 44.2631C22.3616 44.2631 20.2266 46.4245 20.2266 49.0906C20.2266 51.7568 22.3616 53.9182 24.9953 53.9182Z" fill="#FFB8B8"/>
<path d="M17.0552 63.2736L17.5796 74.7262L17.7691 78.8928C17.7767 79.0742 17.8375 79.2492 17.9438 79.3954C18.0502 79.5416 18.1972 79.6524 18.366 79.7135L30.6632 84.2231C30.7625 84.2605 30.8678 84.2792 30.9737 84.2782C31.0949 84.2788 31.2149 84.2547 31.3266 84.2073C31.4383 84.1599 31.5394 84.0902 31.6239 84.0024C31.7084 83.9145 31.7746 83.8103 31.8185 83.696C31.8623 83.5817 31.883 83.4597 31.8792 83.3371L31.3751 62.7449C31.342 61.0554 30.7276 59.4306 29.638 58.1505C28.5483 56.8704 27.0517 56.0152 25.406 55.7325C25.287 55.7141 25.166 55.6957 25.045 55.6794C24.0245 55.5512 22.9887 55.6508 22.0104 55.9714C21.0321 56.2921 20.135 56.8258 19.3824 57.5351C18.603 58.2607 17.9907 59.1508 17.5885 60.1424C17.1864 61.134 17.0043 62.2029 17.0552 63.2736L17.0552 63.2736Z" fill="#CCCCCC"/>
<path d="M36.5387 81.9379C36.2478 81.8465 35.9821 81.6876 35.7627 81.4738C35.5433 81.26 35.3763 80.9972 35.275 80.7065C35.1738 80.4157 35.141 80.1051 35.1795 79.7992C35.2179 79.4934 35.3264 79.2009 35.4963 78.9451L31.3262 73.3315L34.9247 73.1061L38.333 78.4714C38.6979 78.7569 38.9518 79.1635 39.0502 79.6196C39.1486 80.0758 39.0852 80.5524 38.8711 80.966C38.6571 81.3796 38.306 81.7036 37.8795 81.8813C37.453 82.0591 36.9783 82.0791 36.5387 81.9379H36.5387Z" fill="#FFB8B8"/>
<path d="M33.6078 77.9292C33.4974 77.8838 33.3969 77.8167 33.3122 77.7317C33.2275 77.6467 33.1603 77.5456 33.1145 77.4342L26.8319 62.2811C26.7086 61.9844 26.6443 61.6661 26.6426 61.3442C26.6409 61.0224 26.7019 60.7033 26.8221 60.4053C26.9423 60.1074 27.1193 59.8363 27.343 59.6076C27.5667 59.3789 27.8328 59.1971 28.1259 59.0725C28.4191 58.9479 28.7336 58.8831 29.0516 58.8816C29.3695 58.8802 29.6846 58.9422 29.9789 59.0641C30.2731 59.1859 30.5408 59.3653 30.7665 59.592C30.9922 59.8187 31.1716 60.0881 31.2945 60.385L37.5771 75.5383C37.6699 75.7629 37.6709 76.0157 37.5799 76.2412C37.4889 76.4666 37.3133 76.6463 37.0916 76.7408L34.3024 77.9258C34.1926 77.9729 34.0747 77.9974 33.9555 77.998C33.8362 77.9986 33.7181 77.9752 33.6078 77.9292L33.6078 77.9292Z" fill="#CCCCCC"/>
<path d="M23.4626 77.3947L29.4968 65.6981C29.6132 65.4732 29.813 65.3042 30.0523 65.2281C30.2916 65.1521 30.5509 65.1753 30.7734 65.2926L39.5322 69.9234C39.7544 70.0412 39.9213 70.2434 39.9964 70.4857C40.0715 70.7279 40.0486 70.9905 39.9328 71.2157L33.8985 82.9123C33.7821 83.1372 33.5824 83.3063 33.3431 83.3823C33.1037 83.4583 32.8444 83.4352 32.6219 83.3179L23.8632 78.6871C23.641 78.5693 23.474 78.367 23.3989 78.1248C23.3238 77.8825 23.3467 77.6199 23.4626 77.3947Z" fill="#3F3D56"/>
<path d="M27.5094 72.0509C27.4021 71.7624 27.2297 71.5032 27.0059 71.2941C26.7821 71.085 26.5131 70.9318 26.2205 70.8466C25.9278 70.7615 25.6195 70.7467 25.3202 70.8036C25.0209 70.8605 24.7389 70.9874 24.4966 71.1742L18.7149 67.2915L18.7051 70.9414L24.197 74.0689C24.5001 74.4208 24.916 74.6534 25.3716 74.7259C25.8273 74.7984 26.2935 74.7062 26.6887 74.4654C27.0839 74.2247 27.3827 73.8507 27.5328 73.4092C27.6828 72.9677 27.6745 72.4868 27.5094 72.0509Z" fill="#FFB8B8"/>
<path d="M20.1998 72.8716L15.4746 69.0826C14.9635 68.9088 14.5016 68.6121 14.1286 68.2178C13.7557 67.8236 13.4828 67.3436 13.3334 66.8191C13.184 66.2946 13.1626 65.7412 13.271 65.2065C13.3794 64.6718 13.6143 64.1717 13.9557 63.7491L18.246 58.057C18.5441 57.6882 18.9634 57.4403 19.4272 57.3587C19.891 57.277 20.3684 57.3671 20.772 57.6124C21.1756 57.8577 21.4785 58.2419 21.6254 58.6947C21.7723 59.1475 21.7532 59.6387 21.5718 60.0784L18.1772 65.6998L23.1659 68.0952C23.2819 68.1509 23.3849 68.2309 23.4681 68.3298C23.5513 68.4288 23.6128 68.5446 23.6486 68.6694C23.6843 68.7942 23.6935 68.9253 23.6755 69.054C23.6575 69.1827 23.6127 69.3061 23.5441 69.4159L21.5304 72.6421C21.4623 72.751 21.3724 72.8442 21.2665 72.9157C21.1606 72.9872 21.041 73.0354 20.9155 73.0571C20.9106 73.058 20.9055 73.0588 20.9005 73.0595C20.7773 73.0784 20.6515 73.0714 20.5309 73.0391C20.4104 73.0068 20.2977 72.9498 20.1998 72.8716Z" fill="#CCCCCC"/>
<path d="M21.3933 52.3233C21.3729 52.2627 21.3664 52.1981 21.3743 52.1346C21.3823 52.0711 21.4046 52.0102 21.4394 51.9568C21.4741 51.9033 21.5206 51.8586 21.5751 51.826C21.6296 51.7935 21.6907 51.7741 21.7537 51.7692C21.8829 51.7763 22.0093 51.8098 22.1253 51.8677C22.2413 51.9257 22.3445 52.0068 22.4287 52.1062C22.6012 52.3077 22.8022 52.4823 23.0249 52.6246C23.2556 52.7423 23.5685 52.7255 23.7 52.5011C23.8235 52.2903 23.7389 52.0081 23.6641 51.7633C23.4739 51.1405 23.3674 50.4946 23.3477 49.843C23.3261 49.1157 23.4275 48.3567 23.8252 47.7894C24.3386 47.0573 25.2564 46.7794 26.1251 46.7995C26.9938 46.8197 27.8483 47.0911 28.7088 47.2627C29.0058 47.322 29.355 47.3523 29.5537 47.1192C29.7649 46.8714 29.6873 46.4703 29.5975 46.1357C29.3643 45.2675 29.1169 44.3698 28.5752 43.6685C27.9894 42.9399 27.1527 42.463 26.2335 42.3339C25.351 42.2233 24.4552 42.3262 23.6197 42.6343C22.2584 43.0687 21.0606 43.9134 20.1864 45.0556C19.2853 46.2702 18.8959 47.7967 19.1034 49.3011C19.3061 50.6115 19.992 51.7953 21.0228 52.6139L21.3933 52.3233Z" fill="#2F2E41"/>
<path d="M81.7913 114.547C80.5225 113.987 79.3996 113.137 78.511 112.063C77.6225 110.989 76.9926 109.721 76.6712 108.358C76.3498 106.996 76.3457 105.576 76.659 104.211C76.9724 102.847 77.5947 101.575 78.4769 100.495C77.4541 101.251 76.6018 102.219 75.9766 103.334C75.3514 104.449 74.9676 105.686 74.8506 106.962C74.7337 108.239 74.8863 109.526 75.2984 110.739C75.7104 111.951 76.3725 113.061 77.2406 113.994C78.1087 114.928 79.163 115.664 80.3335 116.153C81.504 116.643 82.764 116.874 84.0298 116.833C85.2956 116.792 86.5383 116.479 87.6754 115.914C88.8125 115.35 89.818 114.547 90.6251 113.559C89.3662 114.491 87.8882 115.072 86.3383 115.245C84.7884 115.418 83.2206 115.178 81.7913 114.547Z" fill="#3F3D56"/>
</svg>
