<svg width="290" height="240" viewBox="0 0 290 240" fill="none" xmlns="http://www.w3.org/2000/svg">
<path d="M36.6265 55.3218C28.8171 55.3249 25.4624 66.6125 17.82 68.2166C14.4068 68.933 10.9242 67.5068 7.43681 67.4451C3.94944 67.3834 -0.221961 69.9111 0.514953 73.3143L67.0004 72.3137C60.1283 71.6014 53.7003 68.5872 48.7636 63.7621C45.1602 60.1848 41.7084 55.3197 36.6265 55.3218Z" fill="#F0F0F0"/>
<path d="M189.12 173.749C179.405 173.748 170.005 170.308 162.592 164.041C155.179 157.773 150.232 149.084 148.632 139.519L148.619 139.44L148.67 139.378C151.296 136.239 153.419 132.713 154.962 128.925C153.125 131.275 150.906 133.302 148.397 134.919L148.14 135.09L148.125 134.782C148.092 134.103 148.075 133.429 148.075 132.777C148.053 125.81 149.82 118.954 153.209 112.863C156.598 106.772 161.495 101.651 167.432 97.9884C157.042 87.2255 151.25 72.8522 151.28 57.9053C151.28 25.9762 177.308 5.78386e-05 209.3 5.78386e-05C221.497 -0.0171587 233.389 3.80961 243.28 10.9349C253.171 18.0602 260.557 28.1204 264.384 39.6816L264.436 39.8373L264.283 39.8988C260.333 41.4953 256.698 42.2623 253.22 42.2249C257.183 43.3451 261.297 43.8415 265.413 43.6965L265.555 43.6917L265.589 43.8289C266.739 48.4329 267.32 53.1602 267.319 57.9053C267.319 58.0765 267.318 58.2476 267.317 58.4186C267.306 62.1081 268.074 65.7585 269.57 69.1319C271.067 72.5053 273.259 75.526 276.004 77.9971C280.389 81.9793 283.857 86.8624 286.171 92.3105C288.485 97.7587 289.588 103.642 289.406 109.557C289.224 115.472 287.761 121.277 285.117 126.573C282.473 131.869 278.71 136.531 274.089 140.237L274.005 140.304L273.907 140.26C267.839 137.511 263.613 134.443 260.734 130.676C262.68 135.419 265.518 139.747 269.094 143.425L269.249 143.585L269.056 143.698C262.922 147.265 255.967 149.184 248.869 149.268C241.771 149.352 234.772 147.599 228.554 144.179C226.057 152.695 220.868 160.177 213.76 165.506C206.653 170.836 198.009 173.727 189.12 173.749Z" fill="#FEDC62"/>
<path d="M174.498 239.012C174.318 239.012 174.145 238.947 174.009 238.83C173.874 238.713 173.786 238.55 173.76 238.373C173.729 238.151 170.625 215.809 173.412 186.115C175.986 158.693 184.252 119.195 209.014 86.7553C209.073 86.6775 209.147 86.6121 209.232 86.5628C209.317 86.5136 209.41 86.4815 209.507 86.4683C209.604 86.4552 209.703 86.4613 209.798 86.4863C209.893 86.5113 209.982 86.5546 210.059 86.6139C210.137 86.6732 210.203 86.7472 210.252 86.8318C210.301 86.9164 210.333 87.0098 210.347 87.1067C210.36 87.2037 210.353 87.3022 210.328 87.3968C210.303 87.4913 210.26 87.58 210.2 87.6578C185.653 119.817 177.453 159.025 174.897 186.254C172.126 215.775 175.205 237.943 175.237 238.163C175.252 238.269 175.244 238.376 175.214 238.479C175.183 238.581 175.131 238.676 175.061 238.756C174.991 238.837 174.905 238.901 174.807 238.945C174.71 238.99 174.604 239.012 174.498 239.012L174.498 239.012Z" fill="#3F3D56"/>
<path d="M186.876 129.649C186.718 129.649 186.565 129.599 186.437 129.507C186.31 129.415 186.215 129.284 186.166 129.135C186.118 128.985 186.117 128.824 186.166 128.675C186.215 128.525 186.31 128.395 186.437 128.302C186.527 128.237 195.585 121.722 209.128 116.772C221.647 112.197 240.683 108.049 260.281 114.276C260.375 114.305 260.461 114.353 260.536 114.416C260.611 114.479 260.673 114.556 260.718 114.643C260.763 114.73 260.791 114.825 260.799 114.922C260.807 115.019 260.796 115.118 260.767 115.211C260.737 115.304 260.689 115.391 260.626 115.465C260.563 115.54 260.485 115.602 260.398 115.646C260.311 115.691 260.216 115.719 260.118 115.727C260.021 115.735 259.922 115.724 259.829 115.694C240.633 109.596 221.941 113.675 209.64 118.17C196.291 123.049 187.402 129.443 187.314 129.507C187.187 129.599 187.033 129.649 186.876 129.649Z" fill="#3F3D56"/>
<path d="M36.4478 218.726L38.9675 219.513L55.8764 165.576C55.185 165.401 54.4524 165.496 53.8291 165.843C53.2059 166.189 52.7393 166.761 52.5254 167.441L36.4478 218.726Z" fill="#3F3D56"/>
<path d="M92.0201 148.369H80.8731V115.662H92.0201C94.1527 115.664 96.1973 116.511 97.7053 118.016C99.2133 119.522 100.062 121.563 100.064 123.691V140.339C100.062 142.468 99.2133 144.509 97.7053 146.014C96.1973 147.52 94.1527 148.366 92.0201 148.369Z" fill="#2F2E41"/>
<path d="M90.4685 130.847C90.0963 130.847 89.7393 130.699 89.4761 130.436C89.2128 130.173 89.0647 129.817 89.0643 129.445V117.297H91.8727V129.445C91.8723 129.817 91.7243 130.173 91.461 130.436C91.1978 130.699 90.8408 130.847 90.4685 130.847Z" fill="#3F3D56"/>
<path d="M93.8445 145.799H85.6883C85.2183 145.798 84.7677 145.612 84.4353 145.28C84.103 144.948 83.9161 144.498 83.9155 144.029V139.158C83.9161 138.689 84.103 138.239 84.4353 137.907C84.7677 137.576 85.2183 137.389 85.6883 137.389H93.8445C94.3145 137.389 94.7651 137.576 95.0974 137.907C95.4298 138.239 95.6167 138.689 95.6172 139.158V144.029C95.6167 144.498 95.4298 144.948 95.0974 145.28C94.7651 145.612 94.3145 145.798 93.8445 145.799Z" fill="#3F3D56"/>
<path d="M70.0629 112.259C69.8713 112.259 69.6855 112.193 69.5371 112.072C69.4452 111.997 69.3698 111.904 69.3156 111.799C69.2614 111.694 69.2296 111.578 69.2221 111.46C68.9591 107.269 69.6884 103.074 71.3512 99.2167C72.478 96.6126 73.7742 94.9346 75.4304 93.9359C77.6399 92.6038 80.6718 92.4974 83.7484 93.644C85.5066 94.2993 86.7747 95.1558 87.6249 96.2624C88.7595 97.739 89.1153 99.6334 89.3308 101.46C89.656 104.225 89.7324 107.013 89.559 109.791C89.5512 109.934 89.5053 110.073 89.4261 110.193C89.3469 110.313 89.2371 110.41 89.1081 110.474C88.9685 110.542 88.8136 110.573 88.6585 110.563C88.5035 110.552 88.3539 110.502 88.2245 110.416C88.1724 110.382 88.1186 110.351 88.0633 110.322C87.783 110.182 87.4731 110.11 87.1596 110.114C86.8461 110.118 86.5381 110.197 86.2615 110.345C86.0585 110.465 85.8665 110.602 85.6877 110.756L84.5815 111.65C84.445 111.758 84.2786 111.822 84.1046 111.833C83.9307 111.844 83.7575 111.801 83.6084 111.711C82.8062 111.256 81.9097 110.992 80.9885 110.939C79.7654 110.893 78.541 110.982 77.3374 111.203L70.1879 112.25C70.1465 112.256 70.1048 112.259 70.0629 112.259Z" fill="#2F2E41"/>
<path d="M69.1084 231.292H65.2904L63.4741 216.591H69.1091L69.1084 231.292Z" fill="#FFB6B6"/>
<path d="M71.1625 238.528H68.4533L67.9697 235.975L66.7311 238.528H59.5456C59.2012 238.528 58.8658 238.418 58.5883 238.215C58.3109 238.011 58.106 237.724 58.0035 237.396C57.901 237.067 57.9063 236.715 58.0186 236.39C58.1309 236.065 58.3444 235.784 58.6278 235.589L64.3659 231.633V229.052L70.4014 229.411L71.1625 238.528Z" fill="#2F2E41"/>
<path d="M113.048 228.031L109.528 229.508L102.146 216.659L107.34 214.48L113.048 228.031Z" fill="#FFB6B6"/>
<path d="M117.751 233.907L115.254 234.956L113.817 232.789L113.666 235.622L107.043 238.402C106.725 238.535 106.373 238.564 106.038 238.483C105.703 238.403 105.403 238.218 105.181 237.955C104.959 237.692 104.827 237.365 104.805 237.022C104.782 236.679 104.87 236.338 105.055 236.048L108.809 230.181L107.806 227.801L113.51 225.798L117.751 233.907Z" fill="#2F2E41"/>
<path d="M67.3244 131.172L66.2303 145.804L58.9739 167.655L56.0596 165.964L60.0133 143.741L61.356 130.921L67.3244 131.172Z" fill="#FFB6B6"/>
<path d="M57.2813 170.842C58.968 170.842 60.3353 169.477 60.3353 167.793C60.3353 166.11 58.968 164.745 57.2813 164.745C55.5946 164.745 54.2272 166.11 54.2272 167.793C54.2272 169.477 55.5946 170.842 57.2813 170.842Z" fill="#FFB6B6"/>
<path d="M85.9441 148.024V152.06C85.9441 152.06 92.2025 163.069 89.6541 167.793L99.0501 193.45C99.0501 193.45 111.792 206.17 110.7 215.255L111.428 218.162L103.055 221.796L101.234 219.252L87.0362 194.904L75.0224 172.736L72.8381 198.901C72.8381 198.901 74.2943 219.252 70.2897 221.433L69.9256 224.704H61.4276V221.595C61.4276 221.595 58.2758 210.531 60.0961 202.172L59.368 166.921C59.368 166.921 62.6445 152.021 66.6491 149.477L68.1053 145.843L85.9441 148.024Z" fill="#2F2E41"/>
<path d="M92.631 120.047L84.6954 116.338L82.4049 112.353L74.7025 112.789L72.3718 116.587L65.516 117.974L66.5235 142.709C66.0747 143.485 65.9147 144.394 66.0719 145.275C66.3124 146.826 67.534 145.606 66.3124 146.826C65.0908 148.045 64.17 147.432 64.7831 148.501C65.3962 149.569 63.8882 151.235 63.8882 151.235C63.8882 151.235 83.3907 161.151 88.9001 148.501C88.9001 148.501 89.9863 144.801 88.1513 137.048C86.3163 129.296 92.631 120.047 92.631 120.047Z" fill="#E4E4E4"/>
<path d="M67.7692 119.549L65.516 117.974C65.516 117.974 62.3996 119.251 62.2945 121.834C62.1894 124.418 60.3981 132.15 60.3981 132.15L67.5123 135.968L67.7692 119.549Z" fill="#E4E4E4"/>
<path d="M94.505 132.391L93.4112 147.023L81.2682 165.216L78.3542 163.525L87.1942 144.961L88.5369 132.14L94.505 132.391Z" fill="#FFB6B6"/>
<path d="M88.9191 120.874L92.631 120.047C92.631 120.047 94.8676 120.76 95.173 124.113C95.4784 127.467 95.7345 133.303 95.7345 133.303L87.9449 139.022L86.0109 130.82L88.9191 120.874Z" fill="#E4E4E4"/>
<path d="M79.2704 168.403C80.9571 168.403 82.3244 167.038 82.3244 165.355C82.3244 163.671 80.9571 162.306 79.2704 162.306C77.5837 162.306 76.2164 163.671 76.2164 165.355C76.2164 167.038 77.5837 168.403 79.2704 168.403Z" fill="#FFB6B6"/>
<path d="M77.8573 111.047C81.7873 111.047 84.9732 107.867 84.9732 103.944C84.9732 100.021 81.7873 96.8406 77.8573 96.8406C73.9273 96.8406 70.7413 100.021 70.7413 103.944C70.7413 107.867 73.9273 111.047 77.8573 111.047Z" fill="#FFB7B7"/>
<path d="M72.0613 102.873H72.061C71.1545 102.873 70.2469 102.871 69.3381 102.87C69.2298 102.869 69.1227 102.847 69.0231 102.805C68.9235 102.762 68.8334 102.7 68.758 102.623C68.6839 102.547 68.6259 102.456 68.5877 102.357C68.5494 102.258 68.5317 102.153 68.5355 102.047C68.6025 100.542 69.0334 99.0748 69.7914 97.7719C70.5494 96.4689 71.6119 95.3683 72.8884 94.5641C74.2305 93.7471 75.762 93.2915 77.3332 93.242C78.9044 93.1924 80.4616 93.5505 81.8528 94.2812C83.2439 95.012 84.4214 96.0904 85.2702 97.4113C86.119 98.7321 86.61 100.25 86.6954 101.817C86.7014 101.923 86.6862 102.029 86.6508 102.129C86.6154 102.229 86.5604 102.321 86.489 102.399C86.4177 102.478 86.3314 102.541 86.2352 102.586C86.139 102.631 86.0348 102.656 85.9287 102.661C82.7795 102.794 79.2862 102.858 74.6018 102.87H74.5995C74.4401 102.871 74.2842 102.824 74.1518 102.735C74.0195 102.646 73.9167 102.52 73.8568 102.373L73.7815 102.189C73.7418 102.092 73.6723 102.01 73.5831 101.955C73.4938 101.9 73.3894 101.874 73.2848 101.882C73.1802 101.89 73.0808 101.931 73.0009 101.999C72.921 102.067 72.8647 102.158 72.8402 102.26C72.7985 102.435 72.699 102.59 72.5576 102.702C72.4162 102.813 72.2414 102.873 72.0613 102.873Z" fill="#2F2E41"/>
<path d="M87.9895 138.696C86.077 136.9 85.255 134.293 85.2418 131.719C85.2268 128.779 86.2928 125.987 87.6715 123.431C88.5053 121.885 89.4554 120.405 90.406 118.929C90.7258 118.433 89.9331 117.974 89.6149 118.468C86.3985 123.461 82.8565 129.376 84.9307 135.514C85.4067 136.969 86.2348 138.284 87.3416 139.343C87.7708 139.746 88.42 139.101 87.9895 138.696H87.9895Z" fill="#3F3D56"/>
<path d="M36.4966 193.272C34.9207 192.776 33.2366 192.734 31.6378 193.15C31.6341 193.152 31.6314 193.152 31.6277 193.153C30.3887 193.475 29.2336 194.059 28.2412 194.866C28.1835 194.913 28.1288 194.96 28.0739 195.007C26.8165 196.084 25.8882 197.492 25.3952 199.071L18.5962 220.759C18.0904 222.364 18.0558 224.081 18.4966 225.705C18.5232 225.796 18.5499 225.887 18.5767 225.978C18.9067 227.055 19.4378 228.059 20.1421 228.938C20.1465 228.942 20.15 228.947 20.1525 228.953C21.2518 230.316 22.7323 231.321 24.4055 231.841L37.2284 235.846L49.3195 197.278L36.4966 193.272Z" fill="#FEDC62"/>
<path d="M56.7163 165.839L40.2017 218.517C40.1498 218.683 40.1309 218.856 40.1463 219.029C40.1617 219.201 40.211 219.369 40.2913 219.523C40.3717 219.676 40.4815 219.812 40.6146 219.923C40.7477 220.034 40.9014 220.118 41.067 220.17C41.2325 220.221 41.4066 220.24 41.5794 220.225C41.7522 220.209 41.9202 220.16 42.0738 220.079C42.2275 219.999 42.3638 219.889 42.4749 219.756C42.586 219.623 42.6698 219.47 42.7215 219.305L58.4048 169.277C58.6171 168.597 58.5603 167.862 58.2463 167.223C57.9322 166.583 57.3847 166.088 56.7163 165.839Z" fill="#3F3D56"/>
<path d="M36.1196 238.736C37.4254 238.736 38.4839 237.679 38.4839 236.376C38.4839 235.072 37.4254 234.016 36.1196 234.016C34.8138 234.016 33.7552 235.072 33.7552 236.376C33.7552 237.679 34.8138 238.736 36.1196 238.736Z" fill="#3F3D56"/>
<path d="M20.7209 233.926C22.0267 233.926 23.0853 232.869 23.0853 231.565C23.0853 230.262 22.0267 229.205 20.7209 229.205C19.4151 229.205 18.3566 230.262 18.3566 231.565C18.3566 232.869 19.4151 233.926 20.7209 233.926Z" fill="#3F3D56"/>
<path d="M31.6378 193.15C29.189 200.815 22.7742 220.855 20.1525 228.953C20.15 228.947 20.1464 228.942 20.142 228.938C19.4378 228.059 18.9066 227.055 18.5766 225.978C18.55 225.887 18.5233 225.796 18.4965 225.705C21.3075 216.905 26.0155 202.063 28.0738 195.007C28.1287 194.96 28.1835 194.913 28.2411 194.866C29.2335 194.059 30.3886 193.475 31.6277 193.153C31.6313 193.152 31.6341 193.152 31.6378 193.15Z" fill="#3F3D56"/>
<path d="M107.659 20.3685C104.056 16.7912 100.604 11.926 95.5221 11.9281C87.7127 11.9313 84.358 23.2189 76.7157 24.8229C73.3024 25.5393 69.8198 24.1132 66.3324 24.0515C62.8451 23.9898 58.6737 26.5175 59.4106 29.9206L125.896 28.9201C119.024 28.2078 112.596 25.1936 107.659 20.3685Z" fill="#F0F0F0"/>
<path d="M255.732 5.44189C247.923 5.44507 244.568 16.7327 236.926 18.3367C233.513 19.0531 230.03 17.6269 226.543 17.5652C223.055 17.5035 218.884 20.0312 219.621 23.4344L286.106 22.4339C279.234 21.7216 272.806 18.7074 267.869 13.8823C264.266 10.3049 260.814 5.43979 255.732 5.44189Z" fill="#F0F0F0"/>
</svg>
