<svg width="18" height="18" viewBox="0 0 18 18" fill="none" xmlns="http://www.w3.org/2000/svg">
<path d="M13.2099 11.6368C14.2992 10.1503 14.7871 8.30731 14.576 6.47655C14.3649 4.6458 13.4702 2.96227 12.0711 1.76278C10.672 0.563298 8.87162 -0.0636839 7.0301 0.00727341C5.18857 0.0782307 3.44174 0.841894 2.13908 2.14548C0.836426 3.44907 0.0740124 5.19645 0.00437286 7.03802C-0.0652667 8.8796 0.563004 10.6796 1.76349 12.0778C2.96398 13.4761 4.64814 14.3695 6.47905 14.5793C8.30996 14.7891 10.1526 14.2999 11.6383 13.2095H11.6372C11.6702 13.2545 11.7069 13.2976 11.7474 13.3389L16.0787 17.6701C16.2896 17.8812 16.5758 17.9999 16.8742 18C17.1726 18.0001 17.4589 17.8816 17.67 17.6707C17.8811 17.4598 17.9997 17.1736 17.9998 16.8752C17.9999 16.5767 17.8815 16.2905 17.6705 16.0794L13.3393 11.7481C13.2991 11.7074 13.2558 11.6709 13.2099 11.6368ZM13.5002 7.31226C13.5002 8.12482 13.3401 8.92941 13.0292 9.68012C12.7182 10.4308 12.2624 11.1129 11.6879 11.6875C11.1133 12.262 10.4312 12.7178 9.68051 13.0288C8.92981 13.3397 8.12521 13.4998 7.31266 13.4998C6.5001 13.4998 5.6955 13.3397 4.9448 13.0288C4.1941 12.7178 3.51199 12.262 2.93743 11.6875C2.36287 11.1129 1.9071 10.4308 1.59615 9.68012C1.2852 8.92941 1.12516 8.12482 1.12516 7.31226C1.12516 5.67124 1.77705 4.09742 2.93743 2.93704C4.09781 1.77666 5.67163 1.12476 7.31266 1.12476C8.95368 1.12476 10.5275 1.77666 11.6879 2.93704C12.8483 4.09742 13.5002 5.67124 13.5002 7.31226Z" fill="#717789"/>
</svg>
